
        <svg xmlns="http://www.w3.org/2000/svg" xmlns:xlink="http://www.w3.org/1999/xlink" version="1.1" width="3147.296326570116" height="432.7965610696409" viewBox="0 0 3147.296326570116 432.7965610696409">
			
			<g transform="scale(7.364816328505803) translate(10, 10)">
				<defs id="SvgjsDefs3345"/><g id="SvgjsG3346" featureKey="nameLeftFeature-0" transform="matrix(1.4318962920056193,0,0,1.4318962920056193,-0.3722927662228243,1.6423810643426462)" fill="#000"><path d="M0.34 19.76 c0 -0.4 0.1 -0.28 0.26 -0.4 l1.5 0 c0.04 0 0.2 -0.16 0.2 -0.32 l0 -2.22 c0 -0.06 0.02 -0.14 0.02 -0.22 c0 0 -0.02 -0.16 -0.02 -0.18 c0 -0.34 0 -0.44 0.02 -0.54 c0 -1.86 -0.04 -6.22 -0.04 -10.12 c0 -0.14 -0.22 -0.14 -0.42 -0.28 c-0.06 0 -0.3 0.14 -0.44 0.14 l-0.92 0 c-0.08 -0.1 -0.24 -0.18 -0.24 -0.46 c0 -0.1 0.1 -0.28 0.78 -0.28 c0.8 0 2.28 0.06 2.62 0.06 c1.38 0 3.12 -0.04 3.84 -0.04 c2.12 0 2.7 0.44 3.18 0.54 l0.02 -0.02 c0.08 0 0.24 0.32 0.78 0.46 c0.14 0 0.7 0.64 0.76 0.66 c0 0.24 0.84 0.7 0.84 2.52 c0 0.86 -0.22 0.86 -0.24 1.16 l0 -0.02 c-0.04 0 -0.18 0.44 -0.28 0.44 c0 0 -0.18 0.46 -0.32 0.56 c-0.78 0.76 -0.6 0.4 -1.48 1.14 c-0.42 0 -0.28 0.36 -0.8 0.36 c-1.42 0.06 -1.02 0.3 -1.9 0.3 c-1 0.1 -1.34 0.18 -2.68 0.18 c0 0.02 -0.16 0.02 -0.16 0.42 l0.04 2.54 l-0.04 0.08 l0 0.3 c0 0.16 0 0.3 0.04 0.34 c0 0 -0.06 0.08 -0.06 1.22 c0 0.62 0.06 1.32 0.46 1.32 c0.22 0 0.36 -0.04 0.5 -0.04 c1.42 0 1.14 0.06 1.3 0.36 c-0.12 0.1 -0.04 0.26 -0.24 0.26 l-0.5 0 c-0.04 -0.14 -0.14 -0.14 -0.24 -0.2 c-0.04 0.02 -0.08 0.02 -0.08 0.06 l0.2 0.1 l-0.04 0.04 l-0.62 0 l-0.1 -0.04 c-0.06 0 -0.24 0.04 -0.32 0.04 l-2.28 0 c-0.04 0 -0.26 0.04 -0.32 0.04 c-0.32 0 -1.16 -0.02 -1.18 -0.08 l0 -0.02 c-0.06 0 -0.34 0.1 -0.8 0.1 c-0.54 0 -0.62 -0.12 -0.62 -0.2 c0 -0.04 0.02 -0.06 0.02 -0.06 z M1.5 19.84 c0.02 0.04 0.06 0.1 0.08 0.1 s0.06 -0.02 0.16 -0.06 c0 0 -0.08 -0.06 -0.12 -0.06 c-0.1 0 -0.08 0 -0.12 0.02 z M1.2 19.88 l0 -0.02 c-0.02 0 -0.02 0 -0.02 0.02 s0 0.04 0.02 0.04 l0 -0.04 z M2.1 19.88 c0 -0.02 -0.02 -0.02 -0.08 -0.02 c-0.04 0 -0.08 0 -0.08 0.02 s0.04 0.04 0.08 0.04 s0.08 -0.02 0.08 -0.04 z M3.24 19.84 c-0.02 0 -0.04 0.02 -0.04 0.04 s0.02 0.04 0.04 0.04 c0 0 0.02 -0.02 0.02 -0.04 s-0.02 -0.04 -0.02 -0.04 z M5.9 19.84 c-0.02 -0.02 -0.02 0.02 -0.02 0.04 c0 0 0.02 -0.02 0.02 -0.04 z M0.76 19.78 c-0.02 0 -0.04 0.02 -0.04 0.04 s0.02 0.02 0.04 0.02 s0.02 0 0.02 -0.02 s0 -0.04 -0.02 -0.04 z M0.72 19.76 c-0.02 0 -0.04 0.02 -0.04 0.04 c0 0 0.02 0.02 0.04 0.02 s0.02 -0.02 0.02 -0.02 c0 -0.02 0 -0.04 -0.02 -0.04 z M6.76 19.52 c0 0.1 0.1 0.18 0.24 0.24 c0.28 0 0.28 -0.08 0.32 -0.12 c-0.02 -0.16 -0.1 -0.16 -0.16 -0.16 c-0.02 0 -0.04 0.08 -0.06 0.12 c-0.2 0 -0.2 -0.12 -0.32 -0.12 c-0.02 0 -0.02 0.02 -0.02 0.04 z M0.84 19.52 c0 -0.02 0 -0.02 -0.02 -0.02 c0 0 -0.02 0 -0.02 0.02 s0.02 0.04 0.02 0.04 c0.02 0 0.02 -0.02 0.02 -0.04 z M2.68 19.48 c-0.02 0 -0.04 0.02 -0.04 0.04 s0.02 0.04 0.04 0.04 s0.02 -0.02 0.02 -0.04 s0 -0.04 -0.02 -0.04 z M2.56 19.44 c-0.02 0 -0.04 0.02 -0.04 0.04 l0.04 0 l0.02 0 c0 -0.02 0 -0.04 -0.02 -0.04 z M5.2 10.54 c0 1.32 -0.04 2.06 0.26 2.12 l0.78 0 c0.02 0 0.08 -0.02 0.12 -0.02 c0.64 -0.16 0.84 -0.08 1.3 -0.22 c0.9 0 0.94 -0.38 1.22 -0.46 c0.14 0 0.48 -0.58 0.58 -0.68 l-0.02 0 c0 -0.04 0.22 -0.26 0.22 -0.5 c0 -0.44 0.2 -0.24 0.2 -1.22 c0 -1.06 -0.16 -2.14 -0.16 -2.5 c0.02 -0.02 0.02 -0.04 0.02 -0.06 c0 -0.1 -0.24 -0.22 -0.24 -0.36 c0 -0.02 0.02 -0.04 0.02 -0.06 c0 -0.72 -1.74 -1 -2.02 -1 c-0.26 0 -0.62 0.02 -1.16 0.02 c-0.06 -0.04 -0.12 -0.04 -0.18 -0.04 c-0.2 0 -0.42 0.04 -0.62 0.04 l-0.08 0 c-0.08 0 -0.2 0.06 -0.24 0.46 l0 1.1 s-0.04 0.08 -0.04 0.1 c0.06 0.34 0.06 0.8 0.06 1.28 c0 0.28 -0.02 1.98 -0.02 2 z M2.46 11.86 c0 0.04 0 0.06 0.02 0.06 z M8.96 5.4399999999999995 c-0.02 0 -0.02 0.02 -0.02 0.04 s0 0.04 0.02 0.04 s0.02 -0.02 0.02 -0.04 s0 -0.04 -0.02 -0.04 z M1.18 5.359999999999999 c-0.04 0 -0.14 0.04 -0.14 0.08 l0.02 0 s0.06 0 0.06 0.02 c0.02 0 0.06 -0.02 0.06 -0.1 z M1.4 5.4 c-0.02 0 -0.02 0.02 -0.02 0.04 l0.04 0 c0 -0.02 -0.02 -0.04 -0.02 -0.04 z M1.86 5.4399999999999995 c0 -0.02 -0.04 -0.02 -0.06 -0.02 c-0.04 0 -0.06 0 -0.06 0.02 c-0.02 0 0.1 0 0.12 0 z M8.88 5.359999999999999 l0.02 0.08 s0.04 0 0.06 -0.08 l-0.08 0 z M8.84 5.279999999999999 c-0.02 0 -0.04 0.02 -0.04 0.04 s0.02 0.04 0.04 0.04 s0.02 -0.02 0.02 -0.04 s0 -0.04 -0.02 -0.04 z M0.6 5.08 c-0.08 0.06 -0.1 0.16 -0.12 0.2 c0.12 -0.06 0.12 -0.08 0.12 -0.2 z M1.12 5.140000000000001 c-0.04 0 -0.12 0.04 -0.12 0.08 c0 0.02 0.04 0.02 0.08 0.02 s0.08 0 0.1 -0.04 c0 -0.06 -0.04 -0.06 -0.06 -0.06 z M7.16 5.24 c0 -0.02 -0.02 -0.02 -0.04 -0.02 c-0.04 0 -0.06 0 -0.06 0.02 s0.02 0.02 0.06 0.02 c0.02 0 0.04 0 0.04 -0.02 z M2.18 5.16 l-0.04 0.04 l0.04 0 l0 -0.04 z M13.619000000000002 20.08 c-0.22 0 -0.22 0.02 -0.36 0.02 c-0.04 0 -0.22 -0.16 -0.28 -0.22 c0 0 0.04 -0.3 0.04 -0.36 c0.72 -0.06 1.24 -0.08 1.8 -0.14 c0.06 0 0 -0.38 0.22 -0.38 l0 -0.32 c0.02 0.02 0.04 0.02 0.04 0.02 c0.12 0 0.1 -0.56 0.26 -0.6 c0 -0.04 0.08 -0.72 0.28 -0.88 l0.1 -0.38 s0.68 -2.32 0.94 -2.32 c0.02 0 0.06 0.02 0.08 0.02 c0.1 0 0.12 -0.04 0.12 -0.08 c0 -0.18 -0.16 -0.1 -0.16 -0.24 c0 -0.36 0.36 -1.04 0.4 -1.08 c0.02 -0.82 0.32 -0.62 0.32 -1.14 l0 0.02 c0.02 0 0.18 -0.5 0.26 -0.56 c0 0.04 0.02 0.04 0.02 0.04 s-0.02 0 -0.02 -0.02 c0 -0.12 0.4 -0.94 0.4 -1.16 c0.1 0 0.12 -0.02 0.12 -0.06 s-0.02 -0.08 -0.02 -0.14 c0 -0.12 0.04 -0.24 0.18 -0.4 l0 0.02 c0.04 0 0.02 -0.44 0.18 -0.44 l0.08 -0.38 l0.12 -0.1 l0 -0.32 l0.16 -0.12 l0 -0.34 s0.12 -0.04 0.12 -0.08 c-0.02 0 -0.04 -0.04 -0.04 -0.06 c0 -0.26 0.5 -1.02 0.5 -1.54 l0.1 -0.08 l0 -0.32 c0 0.02 0.02 0.02 0.02 0.02 c0.28 0 -0.1 -1.16 0.94 -1.16 c0.08 0 0.44 0.22 0.44 0.52 c0.08 0.08 -0.08 0.28 0.28 0.94 c0.02 0 0.5 1.3 0.5 1.64 c0.18 0 0.06 0.4 0.52 1.36 c0.12 0.54 0.34 0.52 0.34 0.76 l0 -0.02 s0.1 0.64 0.18 0.64 l-0.02 0 c0 0.08 0.48 0.6 0.48 1.22 c0.12 0.58 0.32 0.34 0.32 0.84 l-0.02 -0.02 c0 0.04 0.32 0.46 0.32 0.72 c-0.02 0 -0.04 0 -0.04 0.02 c0 0.08 0.22 0.36 0.22 0.46 c0 0.02 -0.02 0.02 -0.02 0.04 c0 0.04 0.2 0.2 0.2 0.56 c0.08 0.7 0.42 0.74 0.42 1.18 c-0.02 0.04 -0.04 0.06 -0.04 0.08 c0 0.1 0.32 0.1 0.32 0.56 c0 1.14 0.78 1.4 0.78 2.2 c0.08 0.64 0.46 0.86 0.52 0.9 l1.3 0 c0.08 0 0.2 0.06 0.26 0.1 l0 0.36 c-0.08 0.04 -0.14 0.12 -0.46 0.12 c-0.04 0 -1 -0.04 -1.4 -0.04 c-0.18 0 -0.34 0.04 -0.5 0.04 c-0.02 0 -0.34 -0.04 -0.38 -0.04 c-1.08 0 -1.76 0.06 -2.18 0.06 c-0.02 0 -0.02 -0.06 -0.34 -0.06 c-0.16 0 -0.2 0 -0.28 0.04 c-0.1 0 -0.18 -0.04 -0.22 -0.1 c-0.04 0 -0.12 0.02 -0.12 0.02 l0.04 0.04 l-0.04 0.04 c-0.66 0 -0.72 0 -0.86 -0.12 l0.04 -0.34 c0 -0.04 0.14 -0.12 0.22 -0.12 l1.5 0 c0.02 0.02 0.16 -0.1 0.16 -0.2 c0 -0.04 -0.32 -0.46 -0.32 -0.7 c0.04 -0.02 0.04 -0.02 0.04 -0.06 c0 -0.1 -0.34 -0.36 -0.34 -0.88 c0.02 0 0.02 0 0.02 -0.02 c0 -0.04 -0.22 -0.2 -0.22 -0.36 c0 -0.72 -0.32 -0.72 -0.32 -1.26 l0 0.02 c-0.04 0 -0.22 -0.5 -0.4 -0.5 c-1.34 0 -2.76 0.04 -4.38 0.04 c0 0.08 -0.16 0.12 -0.16 0.34 c-0.3 0.66 -0.34 0.56 -0.34 0.88 c-0.24 0.16 0.02 0.28 -0.26 0.62 c-0.16 1.1 -0.38 0.48 -0.38 1.22 l0 -0.02 c-0.04 0 -0.22 0.52 -0.24 0.52 c0 0.32 0.08 0.32 0.2 0.4 l1.6 0 c0.1 0 0.3 0.02 0.3 0.26 s-0.06 0.36 -0.42 0.36 c-0.06 0 -0.14 -0.04 -0.24 -0.04 c-0.22 0 -0.3 0.04 -0.4 0.04 c-0.04 0 -0.14 -0.04 -0.16 -0.04 l-1.42 0 c-0.04 0.04 -0.08 0.04 -0.12 0.04 c-0.06 0 -0.16 -0.02 -0.24 -0.08 c0 0 0.04 -0.04 0.04 -0.08 l-0.06 0 c-0.04 0 -0.06 0 -0.06 0.04 l0.02 0.04 c-0.02 0.08 -0.04 0.08 -0.16 0.08 c0 -0.26 0 -0.2 0.06 -0.28 c-0.02 -0.08 0.02 -0.18 -0.04 -0.22 c0 0.14 -0.06 0.24 -0.18 0.32 c0 0.04 0.06 0.08 0.1 0.1 c-0.08 0 -0.3 0.1 -0.34 0.16 c-0.36 0 -0.32 -0.08 -0.54 -0.08 z M13.459000000000001 19.92 l0 0.04 l0.1 0 c-0.06 -0.04 -0.08 -0.04 -0.1 -0.04 z M13.799000000000001 19.96 c0 -0.02 -0.02 -0.02 -0.04 -0.02 s-0.04 0 -0.04 0.02 s0.02 0.04 0.04 0.04 s0.04 -0.02 0.04 -0.04 z M13.919 19.92 c-0.02 0 -0.04 0.02 -0.04 0.04 s0.02 0.04 0.04 0.04 s0.02 -0.02 0.02 -0.04 s0 -0.04 -0.02 -0.04 z M14.359000000000002 19.88 c-0.12 0 -0.28 0.04 -0.32 0.08 c0.34 0 0.24 -0.02 0.32 -0.08 z M15.019000000000002 19.9 c0 0.02 0.16 0.04 0.18 0.06 l0.04 -0.04 c-0.1 -0.02 -0.2 -0.02 -0.22 -0.02 z M16.499000000000002 19.92 c0.26 0 0.66 0.04 0.76 0.04 c-0.22 0 -0.22 -0.22 -0.24 -0.32 c0.02 0 -0.16 0.04 -0.16 0.16 c-0.04 0 -0.02 -0.12 -0.18 -0.12 c0 0.14 -0.08 0.18 -0.18 0.24 z M17.419 19.92 l0.04 0.04 c0.02 0 0.14 -0.04 0.18 -0.04 l-0.22 0 z M14.659 19.9 c-0.02 0 -0.04 0.02 -0.04 0.04 c0 0 0.02 0.02 0.04 0.02 s0.02 -0.02 0.02 -0.02 c0 -0.02 0 -0.04 -0.02 -0.04 z M16.239 19.92 c0 0 -0.04 -0.02 -0.06 -0.02 c-0.04 0 -0.04 0.02 -0.04 0.02 c0 0.02 0 0.04 0.04 0.04 c0.02 0 0.06 -0.02 0.06 -0.04 z M21.159 19.88 c0.02 0.02 0.08 0.04 0.1 0.04 s0.12 -0.02 0.16 -0.04 l0 -0.24 s-0.04 -0.02 -0.06 -0.02 c-0.18 0 -0.2 0.04 -0.2 0.12 l0 0.14 z M26.579 19.9 c0.06 0 0.08 0.02 0.18 0.02 c0.02 0 0.12 -0.02 0.18 -0.02 l-0.36 0 z M27.539 19.9 l0 0.02 l0.02 -0.02 l-0.02 0 z M21.719 19.88 l-0.04 0.02 l0.06 0.02 z M23.219 19.88 c-0.02 0 -0.04 0.02 -0.04 0.02 s0.02 0.02 0.04 0.02 s0.02 -0.02 0.02 -0.02 s0 -0.02 -0.02 -0.02 z M25.959000000000003 19.88 c0.02 0.02 0.04 0.02 0.1 0.02 l0.38 0 c-0.02 -0.02 -0.06 -0.04 -0.1 -0.06 c-0.04 0.04 -0.1 0.04 -0.12 0.04 c-0.18 0 -0.14 -0.14 -0.18 -0.14 z M13.139000000000001 19.74 c0 0.12 0 0.1 0.04 0.14 l0.26 0 l0 -0.34 c-0.28 0.14 -0.3 0.08 -0.3 0.2 z M17.359 19.78 l0 0.1 c0.04 0 0.06 -0.04 0.06 -0.04 c-0.02 -0.12 -0.08 -0.12 -0.08 -0.22 c-0.08 0 -0.12 0.04 -0.12 0.06 c0.02 0.04 0.04 0.1 0.14 0.1 z M27.139000000000003 19.84 c-0.02 0 -0.02 0.02 -0.02 0.04 s0 0.02 0.02 0.02 s0.02 0 0.02 -0.02 s0 -0.04 -0.02 -0.04 z M13.679000000000002 19.62 c0 0.16 -0.02 0.2 -0.06 0.22 c0.12 0 0.22 0 0.22 -0.12 s-0.02 -0.1 -0.16 -0.1 z M15.799000000000001 19.8 l0 0.04 l0.04 0 z M16.159000000000002 19.72 l0.04 0.02 l0 -0.06 z M17.459000000000003 19.58 c0 0.02 0 0.06 0.02 0.06 c0 0 0.08 0 0.08 -0.06 c0 -0.04 -0.04 -0.04 -0.08 -0.06 c-0.02 0.02 -0.02 0.04 -0.02 0.06 z M26.599000000000004 19.62 c0 0.02 0.04 0.02 0.06 0.02 c0 -0.1 0 -0.1 -0.04 -0.12 c0 0 -0.02 0.06 -0.02 0.1 z M27.479 19.48 c-0.1 0.02 -0.08 0.06 -0.08 0.16 l0.16 -0.1 c0 -0.02 -0.06 -0.04 -0.08 -0.06 z M25.959000000000003 19.54 c-0.02 0 -0.04 0.02 -0.04 0.02 c0 0.02 0.02 0.02 0.04 0.02 s0.02 0 0.02 -0.02 c0 0 0 -0.02 -0.02 -0.02 z M14.979000000000001 19.48 l0 0.06 l0.04 -0.06 l-0.04 0 z M15.039000000000001 19.18 c0 0.02 0.02 0.3 0.2 0.3 c-0.04 -0.02 -0.1 -0.2 -0.1 -0.3 l0.04 -0.12 l-0.04 -0.04 c-0.08 0 -0.1 0.12 -0.1 0.16 z M15.779000000000002 18.24 c-0.06 0.04 -0.14 0.16 -0.14 0.32 c0.02 0.02 0.04 0.02 0.04 0.02 c0.08 0 0.1 -0.12 0.12 -0.18 c0 -0.02 -0.02 -0.18 -0.02 -0.16 z M15.679000000000002 17.72 c0 -0.02 -0.02 -0.02 -0.02 -0.02 c-0.02 0 -0.02 0 -0.02 0.02 s0 0.02 0.02 0.02 c0 0 0.02 0 0.02 -0.02 z M16.239 16.28 c-0.02 0 -0.04 0.02 -0.04 0.02 s0.02 0.02 0.04 0.02 l0.02 -0.02 z M21.919 16 c-0.02 0 -0.02 0.02 -0.02 0.04 s0 0.04 0.02 0.04 s0.02 -0.02 0.02 -0.04 s0 -0.04 -0.02 -0.04 z M16.419 15.84 c-0.02 0 -0.02 0.02 -0.02 0.04 s0 0.04 0.02 0.04 s0.02 -0.02 0.02 -0.04 s0 -0.04 -0.02 -0.04 z M16.419 15.42 c-0.02 0 -0.02 0.02 -0.02 0.02 c0 0.02 0 0.02 0.02 0.02 s0.02 0 0.02 -0.02 c0 0 0 -0.02 -0.02 -0.02 z M17.339000000000002 14.6 c0.06 0.24 0.08 0.26 0.22 0.34 c0.24 0 0.9 -0.04 2.72 -0.04 c0.16 0 0.24 0.06 0.64 0.06 c0.2 0 0.4 -0.06 0.4 -0.28 c0 -0.1 -0.26 -0.48 -0.26 -0.68 l0.02 0 c0 -0.04 -0.22 -0.22 -0.22 -0.44 c0 -0.74 -0.38 -0.66 -0.38 -1.12 c0.02 0.02 0.02 0.04 0.02 0.04 c-0.02 0 -0.38 -0.66 -0.38 -1.04 c0 -0.26 -0.36 -0.64 -0.36 -1.08 l0.02 0 c0 -0.04 -0.22 -0.24 -0.22 -0.48 c-0.18 -0.42 -0.2 -0.38 -0.36 -0.38 c-0.58 1.38 -0.54 1.4 -0.72 1.74 c0 -0.04 -0.02 0.64 -0.28 0.74 l0 -0.04 c-0.02 0 -0.22 1.14 -0.42 1.32 c0 0.26 -0.44 0.6 -0.44 1.34 z M16.939 14.04 c-0.02 0 -0.04 0.02 -0.04 0.04 s0.02 0.04 0.04 0.04 s0.02 -0.02 0.02 -0.04 s0 -0.04 -0.02 -0.04 z M17.399 12.719999999999999 c-0.02 0 -0.04 0.02 -0.04 0.04 c0 0 0.02 0.02 0.04 0.02 l0 -0.06 z M18.239 11.54 l0 0.02 l0.02 0 z M18.159000000000002 11.22 c-0.02 0 -0.04 0.02 -0.04 0.04 l0.04 0 l0.02 0 c0 -0.02 0 -0.04 -0.02 -0.04 z M18.239 10.7 c-0.02 0 -0.04 0.02 -0.04 0.02 c0 0.02 0.02 0.04 0.04 0.04 c0 0 0.02 -0.02 0.02 -0.04 z M18.779000000000003 9.34 c0 -0.02 -0.02 -0.02 -0.02 -0.02 c-0.02 0 -0.02 0 -0.02 0.02 s0 0.04 0.02 0.04 c0 0 0.02 -0.02 0.02 -0.04 z M18.839000000000002 9.28 l-0.02 0 c0 0.02 0.02 0.02 0.02 0.02 s0.02 0 0.02 -0.02 l-0.02 0 z M21.019000000000002 7.880000000000001 c-0.02 0 -0.02 0.02 -0.02 0.04 s0 0.04 0.02 0.04 s0.02 -0.02 0.02 -0.04 s0 -0.04 -0.02 -0.04 z M20.639000000000003 5.1 c0 0 -0.02 0.02 -0.02 0.04 l0.04 0 c0 -0.02 0 -0.04 -0.02 -0.04 z M20.119 5.0600000000000005 c-0.02 0 -0.02 0.02 -0.02 0.04 s0 0.04 0.02 0.04 s0.02 -0.02 0.02 -0.04 s0 -0.04 -0.02 -0.04 z M20.279000000000003 5.0600000000000005 l0.08 0.04 c0.16 0 0.1 0 0.16 -0.04 l-0.06 -0.08 c-0.08 0 -0.12 0.08 -0.18 0.08 z M32.658 20.1 c0 -0.04 0 -0.08 0.02 -0.12 c0 -0.04 -0.02 -0.08 -0.04 -0.08 c0 0.08 -0.1 0.16 -0.12 0.16 c-0.08 -0.08 -0.18 -0.16 -0.22 -0.26 c0 -0.66 1.82 -0.18 2.14 -0.52 l-0.04 -1.88 l0 -4.78 l0.04 -0.04 c0 -0.74 -0.08 -1.34 -0.08 -2 c0 -1.02 0.08 -2.7 0.08 -3.34 c0 -0.92 -0.02 -1.3 -0.26 -1.64 l-0.24 0 l0 0.08 c-1.16 0 -0.92 0.18 -1.38 0.38 c0.04 0 -0.5 0.06 -0.5 0.32 l0.02 0.02 c0 0.04 -0.46 0.04 -0.46 0.34 c-0.46 0 -0.96 1.26 -1.18 1.48 c0 0.18 -0.42 0.62 -0.42 1.02 l0 -0.02 s-0.02 0.76 -0.42 0.76 c-0.32 0 -0.44 0.02 -0.52 -0.22 c0 -1.58 0.24 -0.94 0.24 -4.56 c4.82 -0.24 9.5 -0.26 11.84 -0.26 c0.34 0 0.64 0.02 0.88 0.02 c0.1 0 0.38 -0.1 0.38 0.6 c0 0.16 0 0.12 -0.04 0.18 c0.08 0.38 -0.02 1.02 0.14 1.42 c-0.02 0.02 -0.06 0.2 -0.06 0.3 c0 0.32 0.18 1.2 0.18 1.94 c0 0.5 -0.16 0.52 -0.48 0.52 c-0.22 0 -0.64 -1.1 -0.74 -1.42 c0.18 0.02 -0.22 -0.02 -0.22 -0.4 c-0.46 -0.62 -0.3 -0.6 -0.68 -0.98 c-0.32 -0.64 -0.46 -0.4 -0.74 -0.7 l0 0.02 c0.02 0 -0.16 -0.38 -0.54 -0.38 c-0.02 -0.18 -0.24 -0.08 -0.32 -0.26 c-0.72 -0.04 -0.66 -0.24 -0.88 -0.24 l-0.06 0.02 c-0.42 0 -0.28 0 -0.4 -0.02 c-0.04 0 -0.08 0.02 -0.08 0.02 c0 0.02 0.02 0.04 0.02 0.04 c0 0.1 -0.22 0.04 -0.22 0.5 c0 0.74 0.06 2.58 0.06 4.62 l0 3.8 c0 0.04 -0.04 0.22 -0.04 0.24 c0 -0.02 0 0.1 0.04 0.16 c0 0.1 0.04 1.72 0.04 1.98 c0 0.52 -0.04 1.12 -0.04 1.52 c0 0.44 0.02 0.9 0.16 0.96 c0.98 0 1 -0.04 1.46 -0.04 c0.12 0 0.38 0.04 0.38 0.4 c0 0.14 -0.16 0.26 -0.28 0.34 c-0.18 0 -0.6 -0.16 -0.86 -0.16 c-0.12 0 -0.2 0.06 -0.28 0.06 c-0.16 -0.02 -0.32 -0.06 -0.44 -0.06 l-0.04 0.04 c-0.18 0 -0.4 0.06 -0.5 0.06 c-0.04 0 -0.1 -0.04 -0.16 -0.04 c-0.02 0 -0.08 0.02 -0.16 0.06 c-0.2 0 -0.42 0 -0.44 -0.06 l-1.04 0 s-0.04 0.06 -0.08 0.06 c0.08 -0.02 -0.12 0.06 -0.12 -0.06 c-0.16 0 -0.28 0.08 -0.48 0.08 c-0.14 0 -0.24 -0.02 -0.3 -0.1 l0.06 -0.04 l-0.34 0 c0 0.08 0 0.16 -0.04 0.2 l-0.04 -0.08 c-0.08 0 -0.08 0.1 -0.14 0.1 c-0.08 0 -0.2 -0.12 -0.22 -0.12 l0.08 -0.06 c0 -0.06 0 -0.08 -0.04 -0.1 l0 0.02 c-0.02 0 -0.04 -0.02 -0.08 -0.02 s-0.1 0.02 -0.12 0.1 l0.04 0.12 l-0.04 0.04 l-0.62 0 z M32.55800000000001 19.94 c-0.02 0 -0.04 0.02 -0.04 0.02 c0 0.02 0.02 0.02 0.04 0.02 s0.02 0 0.02 -0.02 c0 0 0 -0.02 -0.02 -0.02 z M34.338 19.9 c-0.02 0 -0.04 0.02 -0.04 0.04 s0.02 0.04 0.04 0.04 c0 0 0.02 -0.02 0.02 -0.04 s-0.02 -0.04 -0.02 -0.04 z M32.498000000000005 19.88 l0 0.02 l0.02 0 z M34.918000000000006 19.88 l-0.04 0.02 l0.08 0 z M34.718 19.88 c0 -0.02 -0.02 -0.02 -0.04 -0.02 s-0.04 0 -0.04 0.02 s0.02 0.02 0.04 0.02 s0.04 0 0.04 -0.02 z M35.158 19.88 l0 -0.02 c-0.02 0 -0.02 0 -0.02 0.02 s0 0.02 0.02 0.02 l0 -0.02 z M35.298 19.8 c-0.02 0 -0.04 0.02 -0.04 0.04 s0.02 0.04 0.04 0.04 s0.02 -0.02 0.02 -0.04 s0 -0.04 -0.02 -0.04 z M37.518 19.8 l0 0.04 l0.1 0 c-0.02 -0.04 -0.06 -0.04 -0.1 -0.04 z M38.55800000000001 19.8 l-0.04 0.04 l0.04 0 l0 -0.04 z M38.758 19.78 c-0.04 0 -0.04 0.04 -0.04 0.06 l0.04 0 l0 -0.06 z M32.458000000000006 19.68 c0 0.04 0 0.08 0.06 0.08 s0.12 -0.02 0.12 -0.04 c0 -0.14 -0.02 -0.1 -0.12 -0.16 c-0.06 0.04 -0.06 0.04 -0.06 0.12 z M33.118 19.68 c-0.04 0.02 -0.1 0.04 -0.1 0.06 s0.04 0.02 0.06 0.02 c0.04 0 0.06 0 0.06 -0.04 z M33.498000000000005 19.64 c-0.06 0.04 -0.04 0.08 -0.04 0.12 l0.2 0 c-0.04 -0.06 -0.14 -0.06 -0.16 -0.12 z M34.178000000000004 19.76 c0 -0.02 -0.02 -0.02 -0.04 -0.02 s-0.04 0 -0.04 0.02 s0.02 0.02 0.04 0.02 s0.04 0 0.04 -0.02 z M38.398 19.76 l0.02 -0.04 z M34.618 19 c0 0 -0.02 0.02 -0.02 0.04 s0.02 0.04 0.02 0.04 s0.02 -0.02 0.02 -0.04 s-0.02 -0.04 -0.02 -0.04 z M37.298 15.559999999999999 c-0.02 0 -0.04 0.02 -0.04 0.04 s0.02 0.04 0.04 0.04 s0.02 -0.02 0.02 -0.04 s0 -0.04 -0.02 -0.04 z M34.55800000000001 12.14 c-0.02 0 -0.04 0.02 -0.04 0.04 s0.02 0.04 0.04 0.04 s0.02 -0.02 0.02 -0.04 s0 -0.04 -0.02 -0.04 z M29.698000000000004 9.8 c-0.02 0 -0.04 0.02 -0.04 0.04 c0 0 0.02 0.02 0.04 0.02 s0.02 -0.02 0.02 -0.02 c0 -0.02 0 -0.04 -0.02 -0.04 z M42.418000000000006 9.6 c-0.16 0.02 -0.16 0.2 -0.16 0.24 c0.12 -0.12 0.16 -0.12 0.16 -0.24 z M29.758000000000003 9.54 l0 0.14 c0.02 -0.02 0.02 -0.1 0.02 -0.14 l-0.02 0 z M41.898 9.52 l0 0.02 l0.08 0 z M42.418000000000006 9.12 l0 0.04 l0.02 0 z M29.398000000000003 7.84 c0 0 -0.02 0.04 -0.02 0.08 l0.02 0.04 c0.02 0 0.02 -0.04 0.02 -0.06 s0 -0.04 -0.02 -0.06 z M42.178000000000004 7.9 l-0.02 0.02 c0 0.02 0.02 0.04 0.02 0.04 c0.02 0 0.02 -0.02 0.02 -0.04 c0 0 0 -0.02 -0.02 -0.02 z M29.398000000000003 7.74 c0 0 -0.02 0 -0.02 0.02 s0.02 0.04 0.02 0.04 c0.02 0 0.02 -0.02 0.02 -0.04 s0 -0.02 -0.02 -0.02 z M29.458000000000002 6.1 c-0.04 0.02 -0.06 0.04 -0.08 0.08 c0.08 0 0.08 -0.02 0.08 -0.08 z M31.818000000000005 5.9399999999999995 c-0.02 0 -0.04 0 -0.04 0.02 s0.02 0.04 0.04 0.04 s0.02 -0.02 0.02 -0.04 s0 -0.02 -0.02 -0.02 z M31.898000000000003 5.74 c0 0 -0.02 0 0.04 0.06 c0.02 -0.02 0.04 -0.04 0.04 -0.06 l-0.08 0 z M32.498000000000005 5.640000000000001 c-0.02 0 -0.04 0.02 -0.04 0.04 s0.02 0.04 0.04 0.04 c0 0 0.02 -0.02 0.02 -0.04 s-0.02 -0.04 -0.02 -0.04 z M33.458000000000006 5.48 c0 0.02 -0.06 0.1 -0.1 0.12 l0.14 0 c0 -0.04 0.02 -0.08 -0.04 -0.12 z M34.298 5.48 l0 0.04 l0.04 -0.04 l-0.04 0 z M31.818000000000005 5.4 c-0.02 0 -0.04 0.02 -0.04 0.04 s0.02 0.04 0.04 0.04 s0.02 -0.02 0.02 -0.04 s0 -0.04 -0.02 -0.04 z M31.918000000000003 5.4 c-0.02 0.02 -0.02 0.02 -0.02 0.04 c0 -0.02 0.02 -0.04 0.02 -0.04 z M32.438 5.359999999999999 l0 0.08 l0.02 -0.04 z M32.958000000000006 5.4 c-0.02 0 -0.04 0.02 -0.04 0.02 c0 0.02 0.02 0.02 0.04 0.02 c0 0 0.02 0 0.02 -0.02 z M39.298 5.4 l0 0.04 s0.08 0.04 0.08 -0.04 l-0.08 0 z M29.398000000000003 5.4 l0.06 0 l-0.02 0 c0.06 0 0.14 -0.04 0.18 -0.04 c0 0.02 -0.04 -0.14 -0.08 -0.16 c-0.1 0 -0.1 0.14 -0.14 0.2 z M30.138 5.359999999999999 c-0.02 0 -0.02 0.02 -0.02 0.04 l0.04 0 c0 -0.02 0 -0.04 -0.02 -0.04 z M38.798 5.359999999999999 c0.04 0.04 0.08 0.04 0.12 0.04 c-0.02 -0.04 -0.06 -0.04 -0.12 -0.04 z M39.538000000000004 5.279999999999999 c-0.02 0 -0.02 0.02 -0.02 0.04 s0 0.04 0.02 0.04 s0.02 -0.02 0.02 -0.04 s0 -0.04 -0.02 -0.04 z M42.098 5.119999999999999 l0.04 0.04 l0 -0.04 l-0.04 0 z M46.357 19.82 l0 -0.1 c0.04 -0.04 -0.02 -0.38 0.42 -0.38 c0.34 0 0.4 0.02 0.58 0.02 c0.4 0 0.7 -0.02 0.76 -0.12 l0 -1.7 c0 -0.04 -0.02 -0.18 -0.02 -0.2 l-0.02 0.02 c-0.04 -0.04 0.04 0.18 0.04 -0.54 c0 -1.5 -0.02 -2.06 -0.02 -2.56 c0 -0.32 0 -0.94 0.04 -1.46 c0 -0.04 -0.08 -0.3 -0.08 -0.8 c0 -0.24 0.06 -0.24 0.06 -0.36 c0 -0.32 -0.02 -0.62 -0.02 -0.86 c0 -0.42 0.02 -0.74 0.02 -1.2 c0 -0.12 0.3 -0.1 0.36 -0.16 c0 0 0 -0.1 -0.18 -0.1 c0 0 -0.06 0 -0.12 0.08 c-0.02 0 -0.04 -0.02 -0.06 -0.08 l0 -3.38 c0 -0.26 -0.06 -0.42 -0.32 -0.42 c-0.38 0 -0.46 0.06 -1.14 0.06 c-0.54 0 -0.22 -0.08 -0.52 -0.26 c0 -0.48 1.5 -0.34 1.92 -0.4 l-0.06 0 c0 0.02 1.16 0.08 1.16 0.08 c0.04 0 0.08 0.02 0.12 0.02 c0.24 0 0.34 -0.1 0.52 -0.1 c0.08 0 0.16 0.02 0.26 0.02 c0.06 0 0.22 -0.02 0.32 -0.02 c0.24 0 0.96 0.02 1.18 0.02 c0.16 0 0.28 -0.06 0.6 -0.06 c0.1 0 1.84 0.04 2.06 0.04 c0.4 0 1.06 0.2 1.6 0.2 c0.76 0.08 0.3 0.18 1.06 0.36 c-0.02 0 -0.04 -0.02 -0.04 -0.02 c0 0.02 0.56 0.32 0.56 0.38 c0.24 0.06 0.6 0.56 0.78 0.72 l-0.02 -0.02 s0.54 0.76 0.54 1.44 c0 0.74 0 0.78 -0.16 1.28 c0 0.34 -0.46 0.94 -1.26 1.62 c-0.1 -0.04 -0.22 0.34 -0.58 0.34 c0.06 -0.2 -0.1 0.26 -0.66 0.3 c-0.02 -0.02 -0.04 -0.02 -0.04 -0.02 c-0.1 0 -0.24 0.18 -0.32 0.18 c-0.76 0.2 -1.1 0.12 -1.1 0.42 c0 0 -0.04 0.16 0.12 0.16 c0.22 -0.04 0.58 0.32 0.7 0.32 c0.42 0 0.5 0.38 0.84 0.38 c0.36 0.16 0.5 0.28 0.94 0.74 c0.44 1.3 0.78 0.6 0.78 1.58 c0 0.54 0.18 0.92 0.18 1.46 c0 0.08 -0.04 0.42 -0.04 1.12 c0.04 0.26 0.06 0.78 0.14 0.86 l0 -0.04 c0 0.02 -0.06 0.66 0.64 0.66 c0.48 0 0.7 -0.06 0.84 -0.06 c0 0 0.02 0.02 0.04 0.02 c0.04 0 0.14 -0.04 0.22 -0.04 s0.16 0.02 0.2 0.1 l-0.14 0 c0 0.1 0.06 0.1 0.06 0.14 c0.04 -0.02 0.06 -0.06 0.08 -0.06 l0.02 0 l0 0.26 c-0.06 0 -0.06 -0.06 -0.06 -0.14 c-0.04 0.02 -0.06 0.02 -0.16 0.06 c0 0.04 0.02 0.08 0.16 0.14 c-0.08 0.04 -0.1 0.14 -0.2 0.14 l0 -0.02 s-0.1 0.2 -0.7 0.2 c-0.22 0 -1.58 -0.08 -1.94 -0.1 c0 0.02 0 0.02 -0.02 0.02 c-0.16 0 -0.54 -0.4 -0.86 -0.4 l0.02 0 c0 -0.08 -0.9 -0.5 -0.92 -0.88 l0.02 0.02 c0 -0.02 -0.2 -0.2 -0.2 -0.26 c0 -0.04 0.02 -0.16 0.02 -0.28 c0 -0.06 -0.06 -0.06 -0.16 -0.1 c-0.14 -3.26 -0.44 -4.16 -0.74 -4.6 c-0.06 0.22 0.08 -0.24 -0.38 -0.46 c0 -0.14 -0.62 -0.36 -0.6 -0.44 c-0.04 0 -0.08 0.02 -0.1 0.02 c-0.42 0 -0.4 -0.4 -1.08 -0.4 l-1.08 0 c-0.22 0.46 -0.22 1.04 -0.22 1.32 c0 0.06 0 0.52 0.04 0.56 c0 0.02 -0.02 0.08 -0.06 0.28 c0 0.06 0.04 0.3 0.04 0.46 l0 -0.02 c0 0.12 -0.02 0.56 -0.02 0.7 c0 0.26 0.02 0.32 0.02 0.5 l0 2.32 c0 0.04 0.04 0.16 0.04 0.2 c0 0.06 -0.04 0.18 -0.04 0.26 c0 0.26 0.04 0.3 0.04 0.4 c-0.02 0.02 -0.04 0.02 -0.04 0.04 c0 0.06 0.28 0.1 0.82 0.1 c0.02 0 0.42 -0.04 0.44 -0.04 c0.56 0 0.56 0.04 0.68 0.2 c0 0.36 -0.08 0.42 -0.14 0.42 c-0.02 0 -0.04 -0.02 -0.08 -0.1 c-0.1 0 -0.12 0 -0.12 0.02 c0.16 0.18 -1.94 0.18 -2.16 0.18 l0.04 0 s-0.68 -0.02 -0.94 -0.08 c-0.8 0.08 -2.18 0 -2.74 0.2 c-0.24 0 -0.46 0 -0.46 -0.32 z M58.697 19.94 c-0.02 0 -0.04 0.02 -0.04 0.04 s0.02 0.04 0.04 0.04 c0 0 0.02 -0.02 0.02 -0.04 s-0.02 -0.04 -0.02 -0.04 z M59.237 19.76 c-0.14 0 -0.1 0.08 -0.16 0.18 c0 0 0.02 0.02 0.04 0.02 c0.06 0 0.12 -0.1 0.12 -0.2 z M47.397 19.88 c-0.04 0 -0.1 0 -0.14 0.02 c0.04 0 0.1 0 0.14 -0.02 z M47.437 19.88 l0 0.02 l0.04 0 z M48.157 19.9 l-0.02 -0.02 c-0.02 0 -0.02 0.02 -0.02 0.02 c0 0.02 0 0.04 0.02 0.04 c0 0 0.02 -0.02 0.02 -0.04 z M48.537 19.86 c-0.02 0.02 -0.04 0.02 -0.04 0.04 c0.02 0 0.06 0 0.08 -0.02 z M51.637 19.82 l0 0.06 l0.12 0 c-0.04 -0.04 -0.06 -0.06 -0.12 -0.06 z M52.417 19.86 c-0.02 0 -0.04 0.02 -0.04 0.02 s0.02 0.02 0.04 0.02 s0.02 -0.02 0.02 -0.02 s0 -0.02 -0.02 -0.02 z M59.317 19.7 c-0.02 0.06 0.08 0.16 0.08 0.18 c0.1 0 0.1 0 0.16 -0.02 c-0.06 -0.18 0 -0.22 -0.16 -0.3 c-0.06 0.04 -0.08 0.02 -0.08 0.14 z M51.357 19.82 l-0.04 0.04 l0.04 0 l0 -0.04 z M52.697 19.46 c0 0.18 0.12 0.18 0.12 0.32 l0.04 0 l0 -0.22 c-0.02 -0.04 -0.06 -0.08 -0.16 -0.1 z M46.697 19.5 l0 0.06 c0 -0.02 0.02 0.18 0.14 0.18 c0.02 0 0.06 -0.04 0.1 -0.08 c-0.02 0.02 -0.16 -0.16 -0.22 -0.16 l-0.02 0 z M47.037 19.7 c0 -0.02 -0.02 -0.02 -0.02 -0.02 c-0.02 0 -0.02 0 -0.02 0.02 c0 0 0 0.02 0.02 0.02 z M51.397 19.66 c-0.02 0 -0.02 0.02 -0.02 0.02 c0 0.02 0 0.02 0.02 0.02 s0.02 0 0.02 -0.02 c0 0 0 -0.02 -0.02 -0.02 z M52.016999999999996 19.6 l0 0.1 c0.04 -0.02 0.08 -0.04 0.1 -0.08 c-0.04 -0.02 -0.06 -0.02 -0.1 -0.02 z M46.697 19.36 c-0.02 0 -0.02 0.02 -0.02 0.04 s0 0.04 0.02 0.04 s0.02 -0.02 0.02 -0.04 s0 -0.04 -0.02 -0.04 z M55.917 18.84 c0.02 0.04 0.04 0.1 0.04 0.1 c0.02 0 0.02 0 0.02 -0.02 l0 -0.08 l-0.06 0 z M50.337 18.3 l0.08 0.04 c0.04 -0.02 0.04 -0.06 0.04 -0.1 c-0.06 0 -0.08 0.02 -0.12 0.06 z M55.077 17.5 c0.02 0 0.02 0.02 0.02 0.04 c0 0 0 0.02 -0.02 0.02 s-0.02 -0.02 -0.02 -0.02 c0 -0.02 0 -0.04 0.02 -0.04 z M55.317 17.48 c0.02 0.02 0.04 0.02 0.08 0.02 c-0.04 -0.02 -0.06 -0.02 -0.08 -0.02 z M48.377 15.4 c-0.02 0 -0.04 0.02 -0.04 0.04 s0.02 0.04 0.04 0.04 s0.02 -0.02 0.02 -0.04 s0 -0.04 -0.02 -0.04 z M48.217 14.879999999999999 c-0.02 0 -0.04 0.02 -0.04 0.04 s0.02 0.04 0.04 0.04 s0.02 -0.02 0.02 -0.04 s0 -0.04 -0.02 -0.04 z M54.897 12.48 c-0.02 0 -0.04 0.02 -0.04 0.02 c0 0.02 0.02 0.04 0.04 0.04 c0 0 0.02 -0.02 0.02 -0.04 z M50.117 12.14 l0 0.08 l0.02 0.02 c0.06 0 0.14 -0.08 0.14 -0.1 l-0.16 0 z M50.157 11.94 c0 0.02 -0.02 0.02 -0.02 0.02 c0 0.02 0.02 0.02 0.08 0.02 c0 0 0.02 0 0.06 -0.02 c-0.02 -0.06 0 -0.08 -0.06 -0.16 c-0.02 0 -0.08 0.12 -0.06 0.14 z M50.997 10.22 l0 1.02 c0 0.34 0.2 0.4 0.38 0.5 c3.18 -0.08 3.18 -0.52 3.48 -0.82 c-0.02 0 -0.02 -0.02 -0.02 -0.02 c0 -0.1 0.3 -0.3 0.3 -0.44 l-0.02 0 c0 -0.08 0.42 -0.74 0.42 -1.6 c0 -2.04 -0.56 -2.42 -0.64 -2.84 c0 -0.02 -0.6 -0.54 -1.3 -0.54 c-0.44 0 -0.54 0.04 -0.7 0.04 l-1.5 0 c-0.42 0 -0.26 0.2 -0.38 0.42 l0 1.58 l0.04 0.1 c0 0.78 -0.08 1.5 -0.08 2.2 c0 0.04 0 0.1 0.06 0.16 c0 0.04 -0.04 0.1 -0.04 0.24 z M48.377 9.78 c-0.02 0 -0.04 0.02 -0.04 0.02 l0.04 0 l0.02 0 s0 -0.02 -0.02 -0.02 z M48.317 9.68 c-0.02 0 -0.02 0.02 -0.02 0.04 c0 0 0 0.02 0.02 0.02 l0.02 -0.02 c0 -0.02 -0.02 -0.04 -0.02 -0.04 z M48.377 9.58 c-0.02 0 -0.04 0.02 -0.04 0.04 c0 0 0.02 0.02 0.04 0.02 s0.02 -0.02 0.02 -0.02 c0 -0.02 0 -0.04 -0.02 -0.04 z M48.217 8.42 l0 0.1 l0.04 0 c0 -0.04 0 -0.08 -0.04 -0.1 z M57.237 6.1 c0.02 0.04 0.08 0.04 0.1 0.04 l0 -0.12 c-0.06 0 -0.1 0 -0.1 0.08 z M55.717 5.42 c-0.02 0 -0.04 0.02 -0.04 0.04 s0.02 0.02 0.04 0.02 s0.02 0 0.02 -0.02 s0 -0.04 -0.02 -0.04 z M47.437 5.279999999999999 c0.04 0.02 0.08 0.02 0.12 0.02 l-0.08 -0.06 z M49.377 5.279999999999999 l0 -0.02 c-0.02 0 -0.02 0 -0.02 0.02 s0 0.02 0.02 0.02 l0 -0.02 z M54.057 5.24 l0.08 0.04 c0.1 0 0.1 -0.04 0.1 -0.14 c0 -0.02 -0.02 -0.02 -0.1 -0.02 c-0.04 0 -0.08 0 -0.08 0.12 z M52.016999999999996 5.119999999999999 c0 0.04 -0.02 0.12 0.04 0.12 c0.02 -0.02 0.04 -0.08 0.06 -0.12 l-0.1 0 z M54.817 5.199999999999999 c-0.02 0 -0.04 0.02 -0.04 0.02 c0 0.02 0.02 0.02 0.04 0.02 s0.02 0 0.02 -0.02 c0 0 0 -0.02 -0.02 -0.02 z M47.737 5.119999999999999 l0 0.04 c0 -0.02 0.06 0.04 0.1 -0.04 l-0.1 0 z M52.897 5.119999999999999 c-0.04 0 -0.06 0.02 -0.08 0.04 l0.08 0 l0 -0.04 z M46.357 5.119999999999999 l0.02 0 l0.48 0 l-0.5 0 z M63.796 19.68 c0.1 -0.28 0.16 -0.34 0.38 -0.34 c0.66 0 0.8 0.06 1.28 0.06 c0.18 0 0.26 -0.16 0.34 -0.26 l-0.04 -3.08 c0 -0.04 0.04 -0.1 0.04 -0.14 c0 0.02 -0.04 -0.28 -0.04 -0.36 c0 -0.02 -0.02 -0.4 0.04 -0.58 c0 -0.02 -0.04 -0.08 -0.04 -0.12 l0 -1.42 c0.04 -0.04 0.04 -0.1 0.04 -0.14 c0 -0.12 -0.04 -0.18 -0.04 -0.28 c0 0 -0.06 -4.8 -0.06 -6.36 l0.04 -0.08 l0 -0.94 c-0.14 -0.2 -0.6 -0.06 -0.66 -0.16 l-0.12 0.04 l0 0.02 c-0.04 0 -0.16 -0.06 -0.38 -0.06 c-0.04 0 -0.24 0.04 -0.28 0.08 c-0.32 0 -0.54 0.06 -0.54 -0.36 c0 -0.16 0.1 -0.38 0.76 -0.38 c0.08 0 0.26 0.04 0.38 0.04 c0.08 0 1.12 -0.04 1.14 -0.04 c0.14 0 0.38 0.06 0.46 0.06 c0.08 0.02 1.12 -0.08 1.6 -0.08 c0.06 0 0.04 0.18 0.18 0.18 c0 0 0.02 0 0.02 -0.02 s-0.02 -0.06 -0.02 -0.1 c0.22 0 0.44 -0.06 0.76 -0.12 c0.02 0.02 0.1 0.04 0.08 0.06 c0.02 0 0.06 -0.04 0.06 -0.08 c0.02 0 0.12 0.02 0.16 0.06 c0.1 -0.02 0.36 -0.08 0.38 -0.08 c0.78 0 0.82 0.36 0.82 0.56 c0 0.1 -0.14 0.3 -0.24 0.3 c-0.4 0 -1.16 -0.1 -1.34 -0.1 c-0.16 0 -0.24 0.26 -0.26 0.38 l0.02 6.7 c0 0.1 -0.02 0.38 -0.02 0.42 c0 0.02 0.02 -0.02 0.02 0.3 c0 0.7 -0.02 0.98 -0.02 1.36 c0 0.54 0.02 0.48 0.02 0.62 l0 2.32 c0 0.1 -0.06 1.68 0.24 1.74 c0.04 0 0.76 0.02 1.1 -0.02 l0.04 -0.04 l0.36 0 c0.22 0.1 0.26 0.3 0.26 0.38 c0 0.1 -0.16 0.34 -0.22 0.34 c-0.94 0 -2.38 0.06 -2.58 0.06 c0 0 -0.6 -0.04 -0.9 -0.04 c-0.88 0 -2 0.06 -2.64 0.06 c-0.52 0 -0.58 -0.16 -0.58 -0.36 z M64.216 19.92 c0 -0.02 -0.02 -0.02 -0.04 -0.02 s-0.04 0 -0.04 0.02 s0.02 0.04 0.04 0.04 s0.04 -0.02 0.04 -0.04 z M64.336 19.88 c0.08 0 0.12 0.04 0.2 0.04 c0.04 0 0.1 0 0.16 -0.04 c-0.14 0 -0.18 -0.14 -0.24 -0.16 c-0.02 0 -0.12 0 -0.12 0.12 l0 0.04 z M64.736 19.88 c-0.02 0 -0.04 0.02 -0.04 0.04 s0.02 0.04 0.04 0.04 c0 0 0.02 -0.02 0.02 -0.04 s-0.02 -0.04 -0.02 -0.04 z M65.236 19.84 l0.04 0.04 c0.1 0 0.12 0 0.16 -0.04 l-0.04 -0.02 c-0.18 0 -0.12 0 -0.16 0.02 z M69.536 19.68 c-0.12 0.04 -0.1 0.08 -0.1 0.2 c0.1 -0.04 0.08 -0.1 0.12 -0.2 l-0.02 0 z M70.216 19.68 c-0.14 0 -0.14 0.14 -0.16 0.2 l0.24 0 c0 -0.14 -0.04 -0.2 -0.08 -0.2 z M68.716 19.82 l-0.06 0.02 c0 0.02 0 0.02 0.02 0.02 z M68.956 19.84 l-0.04 -0.02 z M70.456 19.64 l0 0.12 c0.06 0.02 0.1 -0.08 0.1 -0.12 l-0.1 0 z M64.096 19.52 c-0.14 0 -0.14 0.14 -0.14 0.2 c0.08 -0.06 0.2 -0.04 0.22 -0.08 c0 -0.02 0.02 -0.12 -0.08 -0.12 z M65.596 19.66 l0.04 0.06 l0 -0.06 l-0.04 0 z M64.416 19.56 l0 0.04 l0.04 -0.04 l-0.04 0 z M70.016 19.52 c0 0.02 -0.02 0.02 -0.02 0.04 s0.02 0.02 0.06 0.04 l0.04 -0.04 l-0.04 -0.08 c-0.02 0 -0.04 0.02 -0.04 0.04 z M70.336 19.56 c0.02 0.04 0.06 0.04 0.1 0.04 c0 -0.02 -0.02 -0.06 -0.02 -0.1 z M66.016 19.3 c-0.02 0.02 -0.02 0.02 -0.02 0.04 s0.06 0.02 0.1 0.02 l0 -0.06 l-0.08 0 z M68.376 6.4 c-0.02 0 -0.04 0 -0.04 0.02 l0.04 0 l0.02 0 c0 -0.02 0 -0.02 -0.02 -0.02 z M69.396 5.32 c-0.02 0 -0.04 0.02 -0.04 0.04 s0.02 0.04 0.04 0.04 s0.02 -0.02 0.02 -0.04 s0 -0.04 -0.02 -0.04 z M63.896 5.140000000000001 c-0.02 0 -0.04 0.02 -0.04 0.04 c0 0 0.02 0.02 0.04 0.02 s0.02 -0.02 0.02 -0.02 c0 -0.02 0 -0.04 -0.02 -0.04 z M65.036 5.039999999999999 c-0.02 0 -0.04 0.02 -0.04 0.04 c0 0 0.02 0.02 0.04 0.02 l0 -0.06 z M65.316 5.039999999999999 c0 0.02 -0.02 0.02 -0.02 0.02 c0 0.02 0.02 0.02 0.06 0.04 l0 -0.06 l-0.04 0 z M64.056 5.02 c-0.08 0 -0.06 0.02 -0.06 0.06 c0.04 0 0.08 0 0.1 -0.04 z M79.155 19.76 c-0.02 0 -0.16 -0.02 -0.18 -0.02 c-0.9 -0.56 -1.08 -0.58 -1.46 -0.74 c0 -0.36 -0.4 -0.24 -0.54 -0.46 c0 -0.14 -0.66 -0.36 -0.66 -0.68 c-0.34 -0.04 -0.18 -0.44 -0.44 -0.54 c0.04 -0.06 -0.42 -0.3 -0.42 -0.56 c0 -0.24 -0.52 -0.8 -0.52 -1.02 c0 -0.28 -0.46 -1.04 -0.46 -1.52 c-0.02 0 -0.24 -1.06 -0.24 -1.42 c0 -0.48 0.06 -0.9 0.06 -1.24 c0 0 0.36 -1.28 0.36 -1.46 c-0.02 0 -0.04 -0.02 -0.04 -0.04 c0 -0.1 0.3 -0.28 0.3 -0.62 c0.22 -0.66 -0.1 0.06 0.38 -0.92 c0.26 0 -0.02 -0.14 0.42 -0.58 l0 0.04 c0.02 0 0.02 -0.48 0.32 -0.48 c0 -0.02 0.2 -0.54 0.68 -0.84 c0.04 0 0.1 -0.26 0.18 -0.26 c1.2 -1 0.96 -0.66 1.42 -1.12 l0 0.04 c0.08 0 0.52 -0.32 0.62 -0.32 c0 0 0.4 -0.34 1.02 -0.34 c0.04 0 0.06 0.02 0.06 0.02 c0.1 0 -0.22 -0.24 1.62 -0.24 c0.76 0 0.7 0.16 1.3 0.16 c-0.02 0 -0.02 -0.02 -0.02 -0.02 c0.02 0 0.26 0.22 0.38 0.22 l0.62 0.08 l0.2 0.16 l0 0.04 c0.08 0 0.6 0.24 0.64 0.24 c0.02 0.02 0.02 0.04 0.04 0.04 c0.06 0 0.12 -0.14 0.3 -0.2 c0.5 -0.06 0 -0.32 0.96 -0.32 c-0.2 0.1 0.26 -0.16 0.26 0.32 c0 0.92 0.08 1.52 0.08 2.52 c0 0.16 -0.04 0.24 -0.04 0.34 c0 0.08 0.12 0.38 0.12 1.1 c0 0.32 -0.1 0.18 -0.2 0.28 l-0.52 0 c-0.06 0 -0.36 -0.48 -0.38 -0.6 l0 -0.02 c-0.04 0 -0.1 -0.38 -0.26 -0.56 c-0.02 0 -0.14 -0.64 -0.44 -1.06 c0 -0.04 -0.44 -0.44 -0.44 -0.54 c0.02 0 0.02 0 0.02 -0.02 c0 -0.06 -0.38 -0.28 -0.4 -0.34 c0.02 -0.26 -0.56 -0.36 -0.56 -0.6 c-0.2 0 -0.5 -0.54 -1.56 -0.54 c-1.3 0 -1.64 0.06 -2.08 0.32 c0 0.14 -0.6 0.08 -0.6 0.44 c-0.02 0 -0.22 0.14 -0.26 0.14 c-0.06 0.06 -0.08 0.06 -0.08 0.08 s0.02 0.02 0.02 0.06 l0 0 c-0.04 0 -0.74 1.22 -0.74 1.78 c0 0.08 -0.1 0.54 -0.12 0.56 l-0.06 0.82 l-0.04 0.04 l0 0.42 c-0.06 0 -0.12 0.76 -0.12 0.94 c0 0 0 0.1 0.02 0.28 c0 0 -0.02 0.18 -0.02 0.36 c0 0.2 0 0.46 0.02 0.54 c-0.02 0.04 -0.02 0.08 -0.02 0.12 c0 0.1 0.02 0.32 0.02 0.46 c-0.02 0.02 -0.02 0.06 -0.02 0.12 c0 0.14 0.02 0.36 0.02 0.5 c0 0.26 -0.02 0.26 -0.02 0.4 s0 0.26 0.08 0.4 c0 0.14 0 0.14 -0.02 0.2 l0.02 0.08 c0 0.24 0.02 0.36 -0.02 0.4 c0.06 1.82 0.42 3.14 0.72 3.28 c0 0.14 -0.16 0.1 0.72 0.98 c0 0 0.42 0.48 0.88 0.48 l-0.02 -0.02 c0.02 0 0.24 0.2 0.86 0.2 c1.52 0 1.64 0.04 2.02 -0.34 c0.12 -0.1 0.5 -0.14 0.56 -0.16 c0.34 -0.54 0.36 -0.24 0.56 -0.56 c-0.04 -0.12 0.46 -0.46 0.72 -0.8 c0 0 0.1 -0.62 0.38 -0.88 l-0.02 0.02 l0 -0.02 c0 -0.06 0.4 -0.8 0.48 -0.86 c0 0.04 0 0.04 0.02 0.04 s0.1 -0.7 0.48 -0.7 c0.02 0.02 0.04 0.02 0.04 0.02 c0.06 0 0.08 -0.04 0.16 -0.04 c0.06 0 0.16 0.04 0.36 0.22 c0 1.22 -0.12 1.74 -0.12 2.44 c0 0.1 0.02 0.18 0.02 0.22 l-0.02 1.38 c-0.04 0.16 -0.04 0.44 -0.34 0.44 c-0.94 0 -0.1 -0.04 -1.26 -0.52 c-0.08 0 -0.36 0.14 -0.52 0.14 c0 -0.02 -0.02 -0.02 -0.04 -0.02 c-0.1 0 -0.36 0.38 -0.56 0.38 c0.04 0 -1.18 0.02 -1.44 0.24 c-0.18 0 -0.34 -0.04 -0.56 -0.04 c0 0.08 -0.5 0 -0.48 0.08 c-0.86 0 -1.16 -0.24 -1.62 -0.24 c-0.22 0 -0.54 -0.02 -0.54 -0.18 z M82.035 19.98 c-0.02 0 -0.04 0.02 -0.04 0.04 s0.02 0.04 0.04 0.04 l0 -0.08 z M81.995 19.94 c-0.02 0 -0.04 0.02 -0.04 0.04 s0.02 0.04 0.04 0.04 s0.02 -0.02 0.02 -0.04 s0 -0.04 -0.02 -0.04 z M80.19500000000001 19.92 l0.06 0.02 l0.02 -0.02 l-0.08 0 z M79.795 19.82 c-0.02 0 -0.02 0.02 -0.02 0.04 s0 0.04 0.02 0.04 s0.02 -0.02 0.02 -0.04 s0 -0.04 -0.02 -0.04 z M79.155 19.6 l0 0.04 l0.02 0 z M86.19500000000001 19.54 c-0.02 0 -0.02 0.02 -0.02 0.02 l0.04 0 c0 0.02 0 -0.02 -0.02 -0.02 z M86.315 17.2 c0 0 0 -0.02 -0.02 -0.02 c0 0 -0.04 0.02 -0.04 0.04 c0.06 0 0.06 0 0.06 -0.02 z M86.355 17.12 c0 -0.02 -0.02 -0.02 -0.02 -0.02 c-0.02 0 -0.02 0 -0.02 0.02 s0 0.04 0.02 0.04 c0 0 0.02 -0.02 0.02 -0.04 z M75.375 16.22 c-0.02 -0.02 -0.08 0.04 -0.08 0.1 c0.1 0 0.08 -0.02 0.08 -0.1 z M86.39500000000001 15.52 c0 0.02 -0.02 0.04 -0.02 0.08 s0.02 0.08 0.06 0.08 l0.04 -0.04 c0 -0.06 0.02 -0.12 -0.08 -0.12 z M85.915 15.52 c0 0 0.04 0.1 0.08 0.12 c0 -0.06 0 -0.16 0.2 -0.16 c-0.02 -0.02 -0.02 -0.04 -0.06 -0.04 c-0.1 0 -0.14 0.08 -0.22 0.08 z M74.97500000000001 15.059999999999999 l0.04 -0.02 z M74.655 14.18 c-0.06 0 -0.04 0.16 -0.04 0.2 s0 0.04 0.02 0.04 c0.04 0 0.08 -0.02 0.08 -0.04 l0 -0.16 s-0.04 -0.04 -0.06 -0.04 z M74.555 13.98 c0.04 0 0.02 0.04 0.12 0.04 c0 0 0.02 0 0.08 -0.02 c-0.04 -0.02 -0.16 -0.02 -0.2 -0.02 z M74.61500000000001 12.379999999999999 c0 -0.02 0 -0.02 -0.02 -0.02 l0 0.06 c0.02 0 0.02 -0.02 0.02 -0.04 z M74.595 11.52 l0.02 0.04 c0.04 -0.02 0.06 -0.02 0.06 -0.08 z M74.875 10.26 c-0.1 0 -0.1 0.06 -0.1 0.08 c0.06 -0.02 0.12 -0.04 0.14 -0.08 l-0.04 0 z M74.935 10.02 c-0.02 0 -0.02 0 -0.02 0.02 c0 0 0 0.02 0.02 0.02 s0.02 -0.02 0.02 -0.02 c0 -0.02 0 -0.02 -0.02 -0.02 z M74.935 9.78 c-0.02 0 -0.02 0.02 -0.02 0.04 s0 0.02 0.02 0.02 s0.02 0 0.02 -0.02 s0 -0.04 -0.02 -0.04 z M76.815 6.84 c-0.02 0 -0.02 0.02 -0.02 0.02 c0 0.04 0.06 0.12 0.1 0.12 l0 -0.22 c-0.08 0 -0.08 0.02 -0.08 0.08 z M84.97500000000001 6.779999999999999 c-0.02 0 -0.02 0.02 -0.02 0.04 c0 0 0 0.02 0.02 0.02 s0.02 -0.02 0.02 -0.02 c0 -0.02 0 -0.04 -0.02 -0.04 z M86.11500000000001 5.619999999999999 l0.04 0.04 l0 -0.04 l-0.04 0 z M79.095 5.16 c-0.08 0.04 -0.06 0.08 -0.06 0.12 c0.08 -0.02 0.06 -0.06 0.06 -0.12 z M79.495 5.199999999999999 c0 0.04 0 0.06 0.02 0.06 l0.02 -0.02 l0 -0.04 l-0.04 0 z M79.735 5.24 c0 -0.02 -0.02 -0.02 -0.02 -0.02 c-0.02 0 -0.02 0 -0.02 0.02 s0 0.04 0.02 0.04 c0 0 0.02 -0.02 0.02 -0.04 z M79.375 5.08 c-0.02 0 -0.04 0.02 -0.04 0.04 s0.02 0.04 0.04 0.04 s0.02 -0.02 0.02 -0.04 s0 -0.04 -0.02 -0.04 z M82.47500000000001 4.84 c0.02 0.06 0.04 0.1 0.1 0.12 c-0.02 0 0 -0.12 -0.02 -0.14 c-0.06 0 -0.06 0.02 -0.08 0.02 z M79.775 4.84 l0 0.04 l0.02 0 z M79.89500000000001 4.82 c-0.02 0 -0.02 0.02 -0.02 0.04 c0 0 0 0.02 0.02 0.02 s0.02 -0.02 0.02 -0.02 c0 -0.02 0 -0.04 -0.02 -0.04 z M80.19500000000001 4.82 l0 0.02 l0.12 0 z M101.614 20 c-0.74 0 -1.94 0.02 -2 0.02 c-0.64 0 -0.66 -0.04 -0.66 -0.24 c0 -0.36 0.42 -0.36 0.42 -0.46 l0.36 0 l0.08 0.04 l0.82 0 s0.1 -0.08 0.1 -0.1 c0 -0.38 -0.3 -0.36 -0.3 -0.58 l-0.24 -0.26 l0 -0.08 c-0.08 -0.04 -0.3 -0.24 -0.34 -0.3 c0 -0.32 -0.4 -0.2 -0.4 -0.56 c-0.34 -0.44 -0.28 -0.28 -0.94 -1.14 c0 -0.14 -0.5 -0.66 -0.62 -0.74 c0 -0.06 -0.22 -0.58 -0.6 -0.78 c0.02 -0.02 0.02 -0.04 0.02 -0.04 c0 -0.16 -1.06 -1.38 -1.22 -1.46 c0 -0.06 -0.4 -0.62 -0.48 -0.66 l-0.02 0.02 c-0.08 0 -0.16 -0.38 -0.3 -0.38 c-0.06 0 -0.1 1.78 -0.1 1.96 c0 0.08 0.02 0.44 0.02 0.66 l0 3.66 c0 0.06 0.04 0.46 0.04 0.54 c-0.02 0 -0.02 0.02 -0.02 0.02 c0 0.08 0.2 0.28 0.26 0.28 l0.86 0 l0.06 -0.02 l0.1 0.02 c0.04 0 0.08 0 0.12 -0.02 c0.54 0 0.56 0.24 0.56 0.54 c-0.04 0.04 -0.26 0.14 -0.5 0.14 c-0.04 0 -0.04 -0.06 -0.22 -0.06 c-0.48 0 -0.96 0.04 -1.5 0.04 c-0.28 0 -1.52 -0.04 -2.7 -0.04 l0.04 -0.02 l-0.14 0 l0.02 0.02 c-0.14 0 -0.36 0.06 -0.5 0.06 c-0.04 0 -0.1 0 -0.1 -0.04 c0 -0.02 0.06 -0.04 0.1 -0.06 c0 0 -0.04 -0.08 -0.04 -0.12 c-0.12 0.14 -0.4 0.14 -0.52 0.14 l0.16 0 c-0.06 0.02 -0.34 0.06 -0.42 0.06 l-0.04 0 c0.02 -0.04 0.08 -0.04 0.12 -0.06 l-0.24 0 l-0.06 0.06 s-0.32 0 -0.32 -0.08 l0 -0.36 c0.02 0 0.3 -0.2 0.54 -0.22 c0 0.02 0.02 0.02 0.04 0.02 c0.06 0 0.18 -0.04 0.26 -0.04 c0.12 0 0.2 0.04 0.28 0.04 c0.18 0 0.22 -0.02 0.32 -0.02 c0.06 0.02 0.18 0.06 0.24 0.06 c0.18 0 0.24 -0.28 0.3 -0.36 c0 -0.08 0 -0.22 -0.02 -0.3 c0 -0.02 0.02 -0.18 0.02 -0.22 c0 -0.02 -0.02 -0.38 -0.02 -0.48 c0 -0.08 0.02 -0.24 0.02 -0.42 c0 -0.26 -0.04 -1.04 -0.04 -3.12 c0 -0.18 0.02 -0.46 0.02 -0.62 c0 -0.32 -0.02 -0.82 -0.02 -1.22 c0 -0.16 0.02 -1.34 0.02 -1.38 c0 -0.08 -0.02 -0.26 -0.02 -0.32 c0 -0.14 0.02 -0.68 0.02 -0.8 l0 -4.36 c0 -0.26 -0.2 -0.2 -0.22 -0.32 c-0.24 0 -0.22 0.04 -0.34 0.04 l-1.3 0 c-0.04 -0.02 -0.16 -0.08 -0.16 -0.14 l0 -0.24 c0 -0.04 0.24 -0.24 0.36 -0.24 l0.92 0 c0.1 0 0.18 0.08 0.32 0.08 c0.04 0 0.74 -0.02 1.04 -0.08 c0.06 0 0.26 0.04 0.32 0.04 c0.08 0 0.26 0.02 0.4 0.02 c0.12 0 0.24 -0.02 0.26 -0.06 c0 0 0.32 0.04 0.46 0.04 c0.58 0 1.34 -0.1 2.02 -0.1 c0.34 0 0.74 0.04 0.82 0.22 c0 0.44 -0.14 0.46 -0.36 0.46 c-0.42 0 -0.44 -0.04 -0.64 -0.04 c-0.02 0.02 -0.06 0.02 -0.08 0.02 c-0.12 0 -0.32 -0.04 -0.5 -0.04 c-0.38 0 -0.42 0.38 -0.42 0.82 c0 0.2 0.02 0.5 0.02 1.04 c0 0.14 -0.06 1.12 -0.06 1.66 c0 0.18 0 0.34 0.04 0.4 c0 0.04 -0.02 0.1 -0.04 0.12 c0 0.24 0 0.28 0.04 0.38 c0 0.12 -0.04 2.16 0.14 2.16 c0.06 -0.06 0.9 -0.82 0.9 -0.98 c0.46 -0.04 -0.22 -0.24 0.8 -0.9 c0 -0.36 0.54 -0.2 0.54 -0.66 c1.34 -1.36 0.36 -0.48 1.1 -1.22 c0.44 -0.14 -0.42 0.2 0.9 -0.94 c0.08 0 0.28 -0.52 0.58 -0.7 c0.22 0 0.5 -0.6 0.84 -0.86 l0 -0.24 c-0.02 -0.02 -0.08 -0.04 -0.1 -0.06 l-1.52 0 c-0.16 0 -0.36 0 -0.36 -0.2 l0 0.02 l0 -0.02 c0 -0.1 0.04 -0.5 0.48 -0.5 c0.1 0 0.34 0.06 0.32 0.06 c0.12 0 0.08 0 0.14 -0.02 l0.72 0.02 l0.04 -0.06 c0.08 0 0.2 0.06 0.4 0.06 c0.02 -0.04 1.54 -0.06 1.8 -0.06 c0.18 0 0.38 -0.02 0.6 -0.02 c0.42 0 0.84 0.06 0.86 0.38 c0 0.22 -0.04 0.4 -0.48 0.4 c-0.28 0 -0.54 -0.06 -0.88 -0.06 l0.06 -0.02 c0 -0.04 0 -0.08 -0.06 -0.08 c-0.02 0 -0.02 0.02 -0.06 0.08 l-0.68 0 c-0.24 0.08 -0.24 0.26 -0.46 0.38 c0 0.32 -0.36 0.2 -0.54 0.68 c-0.12 0 -0.68 0.66 -0.72 0.8 c0.02 0 0.02 0 0.02 0.02 c0 0.06 -0.72 0.42 -0.72 0.74 c-1.56 1.56 -1.4 1.32 -1.46 1.52 c0.02 0.08 -0.72 0.52 -0.72 0.84 c0 0.12 0.18 0.3 0.18 0.44 c0.06 0.08 0.5 0.42 0.5 0.6 c0 0 0.34 0.6 0.86 1.12 c0 0.02 -0.02 0.02 -0.02 0.04 c0 0.12 0.38 0.28 0.5 0.62 c-0.08 0.06 0.46 0.4 0.5 0.54 c0 0.02 0.12 0.2 0.12 0.2 c0.12 0 1.04 1.3 1.1 1.34 c0 0.14 0.7 0.68 0.7 0.96 c0 0.06 0.38 0.34 0.42 0.46 c0 0.12 0.54 0.46 0.54 0.7 c0.44 0.48 0.24 0.36 0.58 0.7 c0.44 0.14 0.4 1.04 1.02 1.04 l1.18 0 c0.18 0.16 0.28 0.2 0.32 0.46 c0 0.34 -0.3 0.38 -0.46 0.38 c0 0 -0.3 -0.08 -0.6 -0.08 c-1.36 0 -1.7 -0.02 -3.5 -0.02 z M94.79400000000001 19.98 l-0.02 0.02 l0.02 0.02 c0.02 0 0.02 -0.02 0.02 -0.02 s0 -0.02 -0.02 -0.02 z M96.95400000000001 20 c0 0 -0.2 0 -0.18 0 c0 0.02 0.04 0.02 0.08 0.02 c0.06 0 0.1 0 0.1 -0.02 z M105.29400000000001 20 l-0.06 0 c0 0.02 0.02 0.02 0.02 0.02 c0.02 0 0.04 0 0.04 -0.02 z M90.474 19.86 c0 0.08 -0.02 0.12 0.08 0.12 c0.04 0 0.08 -0.06 0.08 -0.14 c0 0 -0.06 -0.16 -0.12 -0.2 c-0.02 0 -0.04 0.12 -0.04 0.22 z M99.474 19.94 l0.02 0.04 l0.08 -0.04 l-0.1 0 z M99.334 19.9 c-0.02 0 -0.02 0.02 -0.02 0.04 s0 0.04 0.02 0.04 s0.02 -0.02 0.02 -0.04 s0 -0.04 -0.02 -0.04 z M104.554 19.84 c-0.02 0 -0.04 0.02 -0.04 0.04 c0 0 0.02 0.02 0.04 0.02 s0.02 -0.02 0.02 -0.02 c0 -0.02 0 -0.04 -0.02 -0.04 z M96.474 19.78 c-0.02 0 -0.04 0.02 -0.04 0.04 c0 0 0.02 0.02 0.04 0.02 s0.02 -0.02 0.02 -0.02 c0 -0.02 0 -0.04 -0.02 -0.04 z M92.07400000000001 19.72 c-0.02 0 -0.04 0 -0.04 0.02 l0.04 0 l0.02 0 c0 -0.02 0 -0.02 -0.02 -0.02 z M96.714 19.64 l0.06 0.08 c0 -0.02 0.02 -0.04 0.02 -0.08 l-0.08 0 z M90.634 19.64 l0 0.04 l0.02 -0.04 l-0.02 0 z M90.87400000000001 19.64 l-0.06 0 c0 0.02 0.02 0.04 0.02 0.04 c0.02 0 0.04 -0.02 0.04 -0.04 z M91.37400000000001 19.64 l-0.04 0 c0 0.02 0 0.04 0.02 0.04 c0 0 0.02 -0.02 0.02 -0.04 z M104.59400000000001 19.58 l0.04 0.04 c0.06 0 0.06 -0.02 0.08 -0.04 l-0.12 0 z M105.334 19.48 c-0.02 0 -0.04 0.02 -0.04 0.04 s0.02 0.04 0.04 0.04 s0.02 -0.02 0.02 -0.04 s0 -0.04 -0.02 -0.04 z M103.81400000000001 19.26 c0 0.1 0.14 0.12 0.16 0.14 c0 -0.14 -0.1 -0.14 -0.16 -0.14 z M100.254 18.36 l0 0.02 l0.02 -0.02 l-0.02 0 z M92.45400000000001 14.84 l-0.02 0.02 c0 0.02 0.02 0.02 0.02 0.02 s0.02 0 0.02 -0.02 z M98.834 13.04 l0 0.04 l0.06 0 l0 -0.04 l-0.06 0 z M98.674 9.12 l-0.04 0.04 l0.2 0 z M99.034 8.74 l0.02 -0.04 z M99.334 8.5 c-0.02 0 -0.02 0.02 -0.02 0.04 s0 0.04 0.02 0.04 s0.02 -0.02 0.02 -0.04 s0 -0.04 -0.02 -0.04 z M99.29400000000001 8.14 c-0.02 0 -0.04 0.02 -0.04 0.04 s0.02 0.04 0.04 0.04 l0 -0.08 z M99.95400000000001 7.76 c-0.02 0 -0.02 0.02 -0.02 0.02 c0 0.02 0 0.02 0.02 0.02 s0.02 0 0.02 -0.02 c0 0 0 -0.02 -0.02 -0.02 z M100.414 7.32 c-0.02 0 -0.04 0.02 -0.04 0.04 c0 0 0.02 0.02 0.04 0.02 l0.02 -0.02 c0 -0.02 -0.02 -0.04 -0.02 -0.04 z M100.35400000000001 7.279999999999999 c-0.02 0 -0.04 0.02 -0.04 0.04 s0.02 0.04 0.04 0.04 s0.02 -0.02 0.02 -0.04 s0 -0.04 -0.02 -0.04 z M100.87400000000001 6.84 c-0.02 0 -0.04 0.02 -0.04 0.02 l0.06 0 z M100.414 6.74 c-0.02 0 -0.04 0.02 -0.04 0.04 c0 0 0.02 0.02 0.04 0.02 l0.02 -0.02 c0 -0.02 -0.02 -0.04 -0.02 -0.04 z M90.65400000000001 5.48 l0 0.04 l0.06 0 l0 -0.04 l-0.06 0 z M91.414 5.24 c-0.04 0 -0.04 0.04 -0.08 0.08 c0 0.02 0.02 0.02 0.02 0.04 c0 0.06 -0.32 0.08 -0.32 0.16 l0.3 0 c0.06 0 0.08 -0.12 0.08 -0.28 z M103.274 5.48 c0.02 0.02 0.18 0.04 0.22 0.04 c0.18 0 0.24 -0.04 0.32 -0.04 c0 -0.04 -0.04 -0.1 -0.08 -0.1 c-0.1 0.06 -0.28 0.1 -0.46 0.1 z M96.59400000000001 5.4399999999999995 l0 0.04 l0.04 -0.04 l-0.04 0 z M97.034 5.380000000000001 c-0.04 -0.02 -0.1 0.06 -0.1 0.1 c0.12 0.02 0.1 -0.04 0.1 -0.1 z M104.214 5.279999999999999 c0 0.02 -0.1 0.12 -0.1 0.16 l0 0.04 c0.12 -0.06 0.1 -0.06 0.1 -0.2 z M90.394 5.24 c0.04 0.06 0.04 0.1 0.04 0.18 l0.06 0 c0 -0.2 0.16 -0.22 0.32 -0.22 l0 -0.08 c-0.16 0 -0.4 -0.02 -0.42 0.12 z M102.79400000000001 5.380000000000001 c-0.02 0 -0.04 0.02 -0.04 0.02 c0 0.02 0.02 0.02 0.04 0.02 s0.02 0 0.02 -0.02 c0 0 0 -0.02 -0.02 -0.02 z M99.194 5.16 c0 0.1 -0.02 0.2 0.06 0.28 c0 0 0.08 -0.28 0.06 -0.28 l-0.12 0 z M102.59400000000001 5.119999999999999 c0.14 0 0.08 0.04 0.16 0.2 c0.06 0 0.06 -0.04 0.1 -0.08 l0.14 -0.08 l0 -0.04 c-0.08 0 -0.12 0 -0.16 0.04 l-0.08 -0.04 l0.08 -0.04 c-0.12 0 -0.16 0 -0.24 0.04 z M91.114 5.16 l0 0.12 l0.02 0 c0 -0.04 0 -0.1 -0.02 -0.12 z M91.57400000000001 5.16 c0 0.04 0 0.06 0.04 0.08 c0.12 0 0.12 -0.08 0.12 -0.08 l-0.16 0 z M92.394 5.24 l0.06 0 l0 -0.04 c-0.02 0 -0.04 0.02 -0.06 0.04 z M92.754 5.16 c0 0.04 0 0.06 0.04 0.08 l0 -0.08 l-0.04 0 z M103.37400000000001 5.119999999999999 l0.06 0.12 l0.02 -0.04 c0 -0.04 0 -0.08 -0.02 -0.12 z M92.01400000000001 5.16 c-0.02 0 -0.04 0.02 -0.04 0.04 s0.02 0.04 0.04 0.04 c0 0 0.02 -0.02 0.02 -0.04 s-0.02 -0.04 -0.02 -0.04 z M96.15400000000001 5.16 c0 0.04 0.08 0.08 0.1 0.08 c0.12 -0.02 0.16 -0.06 0.16 -0.08 s0 -0.04 -0.02 -0.04 c-0.06 0 -0.18 0.04 -0.24 0.04 z M93.174 5.16 c-0.02 0 -0.04 0.02 -0.04 0.04 s0.02 0.04 0.04 0.04 l0 -0.08 z M96.674 5.16 l0.04 0.04 c0.06 0 0.1 -0.04 0.16 -0.08 c-0.12 0 -0.12 0 -0.2 0.04 z M97.034 5.16 c-0.02 0 -0.04 0.02 -0.04 0.04 s0.02 0.04 0.04 0.04 c0 0 0.02 -0.02 0.02 -0.04 s-0.02 -0.04 -0.02 -0.04 z M100.414 5.16 c-0.02 0 -0.04 0.02 -0.04 0.02 c0 0.02 0.02 0.02 0.04 0.02 c0 0 0.02 0 0.02 -0.02 z M103.894 5.08 c0 0.08 0.04 0.12 0.06 0.12 l0.2 -0.12 l-0.08 -0.02 c-0.12 0 -0.16 0.02 -0.18 0.02 z M100.674 5.16 c0 -0.02 -0.02 -0.02 -0.02 -0.02 c-0.02 0 -0.02 0 -0.02 0.02 s0 0.04 0.02 0.04 c0 0 0.02 -0.02 0.02 -0.04 z M100.95400000000001 5.119999999999999 c-0.02 0 -0.04 0.02 -0.04 0.04 s0.02 0.04 0.04 0.04 s0.02 -0.02 0.02 -0.04 s0 -0.04 -0.02 -0.04 z M99.894 5.119999999999999 c0 -0.02 -0.02 -0.02 -0.06 -0.02 c0 0 -0.02 0 -0.02 0.02 s0.02 0.04 0.02 0.04 c0.04 0 0.06 -0.02 0.06 -0.04 z M101.774 5.08 c-0.02 0 -0.04 0.02 -0.04 0.04 s0.02 0.04 0.04 0.04 c0 0 0.02 -0.02 0.02 -0.04 s-0.02 -0.04 -0.02 -0.04 z M102.09400000000001 5.08 c-0.02 0 -0.04 0.02 -0.04 0.04 s0.02 0.04 0.04 0.04 c0 0 0.02 -0.02 0.02 -0.04 s-0.02 -0.04 -0.02 -0.04 z M102.43400000000001 5.08 l-0.04 0.04 l0.08 0 z M103.57400000000001 5.08 l0 0.04 l0.12 0 c-0.06 -0.04 -0.08 -0.04 -0.12 -0.04 z"/></g><g id="SvgjsG3347" featureKey="inlineSymbolFeature-0" transform="matrix(0.5976875942585715,0,0,0.5976875942585715,168.2291906687006,-8.953359888393734)" fill="#000"><g xmlns="http://www.w3.org/2000/svg"><path d="M74.993,35.487c-0.296,0-0.591,0.007-0.889,0.021c-0.605-6.927-6.438-12.38-13.52-12.38   c-1.324,0-2.621,0.188-3.871,0.561c-4.387-5.478-11.052-8.709-18.104-8.709c-12.783,0-23.184,10.399-23.184,23.183   c0,1.81,0.21,3.603,0.626,5.355c-5.819,2.345-9.742,8.042-9.742,14.438c0,3.746,1.351,7.365,3.804,10.193   c2.397,2.768,5.692,4.602,9.286,5.174c0.794,0.23,1.611,0.346,2.433,0.346h5.529v-3.686h-5.529c-0.504,0-1.006-0.074-1.494-0.223   c-0.084-0.025-0.17-0.047-0.258-0.061c-5.751-0.867-10.087-5.92-10.087-11.746c0-5.359,3.61-10.078,8.78-11.472   c0.486-0.131,0.897-0.455,1.138-0.898c0.24-0.441,0.289-0.964,0.135-1.443c-0.621-1.934-0.937-3.944-0.937-5.979   c0-10.752,8.748-19.501,19.5-19.501c6.325,0,12.284,3.095,15.939,8.276c0.498,0.706,1.42,0.971,2.217,0.636   c1.21-0.506,2.494-0.764,3.816-0.764c5.451,0,9.889,4.437,9.889,9.888c0,0.21-0.01,0.436-0.028,0.712   c-0.041,0.56,0.179,1.107,0.593,1.487c0.413,0.38,0.977,0.55,1.531,0.462c0.805-0.127,1.619-0.191,2.423-0.191   c8.481,0,15.384,6.899,15.384,15.381c0,8.48-6.9,15.383-15.384,15.383c-0.058,0-0.112-0.002-0.17-0.004l-0.162-0.006   c-0.092,0-0.185,0.004-0.276,0.016c-0.234,0.031-0.453,0.045-0.668,0.045h-1.56v3.686h1.56c0.322,0,0.653-0.021,0.99-0.061   c0.096,0.004,0.189,0.008,0.286,0.008c10.513,0,19.065-8.553,19.065-19.066C94.056,44.038,85.505,35.487,74.993,35.487z"/></g><g xmlns="http://www.w3.org/2000/svg"><g><path d="M48.048,52.328c-0.565,0-1.022,0.457-1.022,1.023C47.023,52.787,47.482,52.328,48.048,52.328    s1.022,0.459,1.022,1.023C49.072,52.787,48.615,52.328,48.048,52.328z"/><path d="M47.023,53.354c0,0.566,0.459,1.023,1.024,1.023C47.482,54.377,47.023,53.92,47.023,53.354z"/><path d="M48.048,54.377c0.565,0,1.022-0.457,1.022-1.023C49.072,53.92,48.615,54.377,48.048,54.377z"/></g></g><g xmlns="http://www.w3.org/2000/svg"><path d="M61.803,50.278c0,0-2.367,2.445-7.33,2.445v4.887c0,0,9.773-0.15,9.773-4.887   C64.246,50.278,61.803,50.278,61.803,50.278z"/><path d="M61.803,58.952c0,0-2.367,2.441-7.33,2.441v4.887c0,0,9.773-0.15,9.773-4.887   C64.246,58.952,61.803,58.952,61.803,58.952z"/><path d="M61.803,67.624c0,0-2.367,2.441-7.33,2.441v4.889c0,0,9.773-0.152,9.773-4.889   C64.246,67.624,61.803,67.624,61.803,67.624z"/><ellipse cx="54.473" cy="44.05" rx="9.771" ry="4.887"/><path d="M49.584,63.839c0,0-2.365,2.441-7.33,2.441c-4.963,0-7.33-2.441-7.33-2.441s-2.443,0-2.443,2.441   c0,4.734,9.775,4.889,9.775,4.889s9.773-0.152,9.773-4.889C52.029,63.839,49.584,63.839,49.584,63.839z"/><path d="M49.584,72.511c0,0-2.365,2.443-7.33,2.443c-4.963,0-7.33-2.443-7.33-2.443s-2.443,0-2.443,2.443   c-0.002,4.73,9.773,4.885,9.773,4.885s9.775-0.152,9.775-4.885C52.029,72.511,49.584,72.511,49.584,72.511z"/><ellipse cx="42.254" cy="57.61" rx="9.775" ry="4.887"/></g></g><g id="SvgjsG3348" featureKey="nameRightFeature-0" transform="matrix(1.4318962920056193,0,0,1.4318962920056193,226.79003838991295,1.6423810643426462)" fill="#000"><path d="M16.939 19.76 c-0.02 0 -0.16 -0.02 -0.18 -0.02 c-0.9 -0.56 -1.08 -0.58 -1.46 -0.74 c0 -0.36 -0.4 -0.24 -0.54 -0.46 c0 -0.14 -0.66 -0.36 -0.66 -0.68 c-0.34 -0.04 -0.18 -0.44 -0.44 -0.54 c0.04 -0.06 -0.42 -0.3 -0.42 -0.56 c0 -0.24 -0.52 -0.8 -0.52 -1.02 c0 -0.28 -0.46 -1.04 -0.46 -1.52 c-0.02 0 -0.24 -1.06 -0.24 -1.42 c0 -0.48 0.06 -0.9 0.06 -1.24 c0 0 0.36 -1.28 0.36 -1.46 c-0.02 0 -0.04 -0.02 -0.04 -0.04 c0 -0.1 0.3 -0.28 0.3 -0.62 c0.22 -0.66 -0.1 0.06 0.38 -0.92 c0.26 0 -0.02 -0.14 0.42 -0.58 l0 0.04 c0.02 0 0.02 -0.48 0.32 -0.48 c0 -0.02 0.2 -0.54 0.68 -0.84 c0.04 0 0.1 -0.26 0.18 -0.26 c1.2 -1 0.96 -0.66 1.42 -1.12 l0 0.04 c0.08 0 0.52 -0.32 0.62 -0.32 c0 0 0.4 -0.34 1.02 -0.34 c0.04 0 0.06 0.02 0.06 0.02 c0.1 0 -0.22 -0.24 1.62 -0.24 c0.76 0 0.7 0.16 1.3 0.16 c-0.02 0 -0.02 -0.02 -0.02 -0.02 c0.02 0 0.26 0.22 0.38 0.22 l0.62 0.08 l0.2 0.16 l0 0.04 c0.08 0 0.6 0.24 0.64 0.24 c0.02 0.02 0.02 0.04 0.04 0.04 c0.06 0 0.12 -0.14 0.3 -0.2 c0.5 -0.06 0 -0.32 0.96 -0.32 c-0.2 0.1 0.26 -0.16 0.26 0.32 c0 0.92 0.08 1.52 0.08 2.52 c0 0.16 -0.04 0.24 -0.04 0.34 c0 0.08 0.12 0.38 0.12 1.1 c0 0.32 -0.1 0.18 -0.2 0.28 l-0.52 0 c-0.06 0 -0.36 -0.48 -0.38 -0.6 l0 -0.02 c-0.04 0 -0.1 -0.38 -0.26 -0.56 c-0.02 0 -0.14 -0.64 -0.44 -1.06 c0 -0.04 -0.44 -0.44 -0.44 -0.54 c0.02 0 0.02 0 0.02 -0.02 c0 -0.06 -0.38 -0.28 -0.4 -0.34 c0.02 -0.26 -0.56 -0.36 -0.56 -0.6 c-0.2 0 -0.5 -0.54 -1.56 -0.54 c-1.3 0 -1.64 0.06 -2.08 0.32 c0 0.14 -0.6 0.08 -0.6 0.44 c-0.02 0 -0.22 0.14 -0.26 0.14 c-0.06 0.06 -0.08 0.06 -0.08 0.08 s0.02 0.02 0.02 0.06 l0 0 c-0.04 0 -0.74 1.22 -0.74 1.78 c0 0.08 -0.1 0.54 -0.12 0.56 l-0.06 0.82 l-0.04 0.04 l0 0.42 c-0.06 0 -0.12 0.76 -0.12 0.94 c0 0 0 0.1 0.02 0.28 c0 0 -0.02 0.18 -0.02 0.36 c0 0.2 0 0.46 0.02 0.54 c-0.02 0.04 -0.02 0.08 -0.02 0.12 c0 0.1 0.02 0.32 0.02 0.46 c-0.02 0.02 -0.02 0.06 -0.02 0.12 c0 0.14 0.02 0.36 0.02 0.5 c0 0.26 -0.02 0.26 -0.02 0.4 s0 0.26 0.08 0.4 c0 0.14 0 0.14 -0.02 0.2 l0.02 0.08 c0 0.24 0.02 0.36 -0.02 0.4 c0.06 1.82 0.42 3.14 0.72 3.28 c0 0.14 -0.16 0.1 0.72 0.98 c0 0 0.42 0.48 0.88 0.48 l-0.02 -0.02 c0.02 0 0.24 0.2 0.86 0.2 c1.52 0 1.64 0.04 2.02 -0.34 c0.12 -0.1 0.5 -0.14 0.56 -0.16 c0.34 -0.54 0.36 -0.24 0.56 -0.56 c-0.04 -0.12 0.46 -0.46 0.72 -0.8 c0 0 0.1 -0.62 0.38 -0.88 l-0.02 0.02 l0 -0.02 c0 -0.06 0.4 -0.8 0.48 -0.86 c0 0.04 0 0.04 0.02 0.04 s0.1 -0.7 0.48 -0.7 c0.02 0.02 0.04 0.02 0.04 0.02 c0.06 0 0.08 -0.04 0.16 -0.04 c0.06 0 0.16 0.04 0.36 0.22 c0 1.22 -0.12 1.74 -0.12 2.44 c0 0.1 0.02 0.18 0.02 0.22 l-0.02 1.38 c-0.04 0.16 -0.04 0.44 -0.34 0.44 c-0.94 0 -0.1 -0.04 -1.26 -0.52 c-0.08 0 -0.36 0.14 -0.52 0.14 c0 -0.02 -0.02 -0.02 -0.04 -0.02 c-0.1 0 -0.36 0.38 -0.56 0.38 c0.04 0 -1.18 0.02 -1.44 0.24 c-0.18 0 -0.34 -0.04 -0.56 -0.04 c0 0.08 -0.5 0 -0.48 0.08 c-0.86 0 -1.16 -0.24 -1.62 -0.24 c-0.22 0 -0.54 -0.02 -0.54 -0.18 z M19.819 19.98 c-0.02 0 -0.04 0.02 -0.04 0.04 s0.02 0.04 0.04 0.04 l0 -0.08 z M19.779 19.94 c-0.02 0 -0.04 0.02 -0.04 0.04 s0.02 0.04 0.04 0.04 s0.02 -0.02 0.02 -0.04 s0 -0.04 -0.02 -0.04 z M17.979 19.92 l0.06 0.02 l0.02 -0.02 l-0.08 0 z M17.579 19.82 c-0.02 0 -0.02 0.02 -0.02 0.04 s0 0.04 0.02 0.04 s0.02 -0.02 0.02 -0.04 s0 -0.04 -0.02 -0.04 z M16.939 19.6 l0 0.04 l0.02 0 z M23.979 19.54 c-0.02 0 -0.02 0.02 -0.02 0.02 l0.04 0 c0 0.02 0 -0.02 -0.02 -0.02 z M24.099 17.2 c0 0 0 -0.02 -0.02 -0.02 c0 0 -0.04 0.02 -0.04 0.04 c0.06 0 0.06 0 0.06 -0.02 z M24.139 17.12 c0 -0.02 -0.02 -0.02 -0.02 -0.02 c-0.02 0 -0.02 0 -0.02 0.02 s0 0.04 0.02 0.04 c0 0 0.02 -0.02 0.02 -0.04 z M13.158999999999999 16.22 c-0.02 -0.02 -0.08 0.04 -0.08 0.1 c0.1 0 0.08 -0.02 0.08 -0.1 z M24.179000000000002 15.52 c0 0.02 -0.02 0.04 -0.02 0.08 s0.02 0.08 0.06 0.08 l0.04 -0.04 c0 -0.06 0.02 -0.12 -0.08 -0.12 z M23.698999999999998 15.52 c0 0 0.04 0.1 0.08 0.12 c0 -0.06 0 -0.16 0.2 -0.16 c-0.02 -0.02 -0.02 -0.04 -0.06 -0.04 c-0.1 0 -0.14 0.08 -0.22 0.08 z M12.759 15.059999999999999 l0.04 -0.02 z M12.439 14.18 c-0.06 0 -0.04 0.16 -0.04 0.2 s0 0.04 0.02 0.04 c0.04 0 0.08 -0.02 0.08 -0.04 l0 -0.16 s-0.04 -0.04 -0.06 -0.04 z M12.339 13.98 c0.04 0 0.02 0.04 0.12 0.04 c0 0 0.02 0 0.08 -0.02 c-0.04 -0.02 -0.16 -0.02 -0.2 -0.02 z M12.399 12.379999999999999 c0 -0.02 0 -0.02 -0.02 -0.02 l0 0.06 c0.02 0 0.02 -0.02 0.02 -0.04 z M12.379 11.52 l0.02 0.04 c0.04 -0.02 0.06 -0.02 0.06 -0.08 z M12.659 10.26 c-0.1 0 -0.1 0.06 -0.1 0.08 c0.06 -0.02 0.12 -0.04 0.14 -0.08 l-0.04 0 z M12.719 10.02 c-0.02 0 -0.02 0 -0.02 0.02 c0 0 0 0.02 0.02 0.02 s0.02 -0.02 0.02 -0.02 c0 -0.02 0 -0.02 -0.02 -0.02 z M12.719 9.78 c-0.02 0 -0.02 0.02 -0.02 0.04 s0 0.02 0.02 0.02 s0.02 0 0.02 -0.02 s0 -0.04 -0.02 -0.04 z M14.599 6.84 c-0.02 0 -0.02 0.02 -0.02 0.02 c0 0.04 0.06 0.12 0.1 0.12 l0 -0.22 c-0.08 0 -0.08 0.02 -0.08 0.08 z M22.759 6.779999999999999 c-0.02 0 -0.02 0.02 -0.02 0.04 c0 0 0 0.02 0.02 0.02 s0.02 -0.02 0.02 -0.02 c0 -0.02 0 -0.04 -0.02 -0.04 z M23.899 5.619999999999999 l0.04 0.04 l0 -0.04 l-0.04 0 z M16.878999999999998 5.16 c-0.08 0.04 -0.06 0.08 -0.06 0.12 c0.08 -0.02 0.06 -0.06 0.06 -0.12 z M17.279 5.199999999999999 c0 0.04 0 0.06 0.02 0.06 l0.02 -0.02 l0 -0.04 l-0.04 0 z M17.519 5.24 c0 -0.02 -0.02 -0.02 -0.02 -0.02 c-0.02 0 -0.02 0 -0.02 0.02 s0 0.04 0.02 0.04 c0 0 0.02 -0.02 0.02 -0.04 z M17.159 5.08 c-0.02 0 -0.04 0.02 -0.04 0.04 s0.02 0.04 0.04 0.04 s0.02 -0.02 0.02 -0.04 s0 -0.04 -0.02 -0.04 z M20.259 4.84 c0.02 0.06 0.04 0.1 0.1 0.12 c-0.02 0 0 -0.12 -0.02 -0.14 c-0.06 0 -0.06 0.02 -0.08 0.02 z M17.559 4.84 l0 0.04 l0.02 0 z M17.679000000000002 4.82 c-0.02 0 -0.02 0.02 -0.02 0.04 c0 0 0 0.02 0.02 0.02 s0.02 -0.02 0.02 -0.02 c0 -0.02 0 -0.04 -0.02 -0.04 z M17.979 4.82 l0 0.02 l0.12 0 z M37.118 19.98 c-0.12 0 -0.32 -0.06 -0.32 -0.3 c0 -0.28 0.28 -0.2 0.42 -0.28 l1.3 0 c0.22 -0.24 0.2 -0.18 0.2 -0.58 c0 -0.22 -0.04 -1.9 -0.04 -2.12 c0 -1 0.02 -1.82 0.08 -2.64 c0 -0.06 0 -0.06 -0.04 -0.12 l0 -1.08 c-0.1 -0.1 -0.14 -0.34 -0.22 -0.34 c-0.72 0 -0.9 0.04 -1.26 0.04 c-0.08 0 -0.86 -0.04 -1.04 -0.04 l0 -0.04 l-0.28 0 l0.06 0.04 c-0.66 0 -0.58 0.06 -1.18 0.06 c-0.16 0 -0.78 -0.02 -0.98 -0.02 l-0.64 0 l-0.08 0.18 c0 1.06 -0.02 2.34 -0.08 2.76 c0 0.08 0.08 0.16 0.08 0.36 l0 3.36 c0 0.08 0.14 0.2 0.24 0.32 c0.44 0 0.94 -0.12 1.22 -0.12 c0.12 0 0.46 -0.02 0.46 0.36 c-0.04 -0.02 -0.06 -0.06 -0.06 -0.12 c-0.02 0 -0.1 0.08 -0.1 0.22 c0.04 0 0.06 0 0.1 -0.02 c-0.02 0.12 -0.14 0.12 -0.24 0.12 l0 -0.12 c-0.06 0 -0.14 0.08 -0.18 0.12 c-0.52 0 -4.32 0.06 -5.94 0.06 c-0.1 0 -0.24 -0.02 -0.32 -0.16 l0 -0.26 l-0.02 0 c0 -0.02 0.48 -0.22 0.48 -0.22 c0.3 0 0.48 0.1 1.1 0.1 c0.34 0 0.22 -0.14 0.36 -0.2 c0 -1.16 -0.04 -1.36 -0.04 -1.68 c0 -0.94 0.04 -1.28 0.04 -1.7 c0 -0.3 -0.04 -1.02 -0.04 -1.48 c0 -0.04 0.04 -0.28 0.04 -0.32 c0 -0.26 -0.04 -0.56 -0.04 -1.26 l0.04 -0.06 c0 -0.08 -0.04 -0.16 -0.04 -0.24 l0 -3.06 l0.06 -0.04 c0 -0.02 -0.06 -0.1 -0.06 -0.26 l0 -3.38 s-0.06 -0.04 -0.06 -0.08 c0 -0.2 -0.78 -0.18 -0.92 -0.2 c-0.02 0 -0.28 0.04 -0.38 0.04 c-0.42 0 -0.54 -0.08 -0.6 -0.22 c0 -0.16 -0.1 -0.36 0.38 -0.44 l6.22 0 c0.02 0.02 0.22 0 0.22 0.32 c0 0.16 -0.26 0.38 -0.34 0.38 l-0.04 0.02 s0.02 0 0.02 -0.02 c0 0 -0.08 -0.08 -0.6 -0.08 l-0.68 0 c-0.36 0 -0.36 0.94 -0.36 0.98 c0 0.06 0.04 0.16 0.04 0.28 c-0.04 0.12 -0.04 0.2 -0.04 0.28 c0 0.24 0.04 0.34 0.04 0.5 c-0.04 0.06 -0.04 0.12 -0.04 0.14 c0 0.08 0.04 0.16 0.04 0.22 l0 2.48 c0 0.1 -0.06 0.36 -0.06 0.36 c0 0.1 0.06 0.34 0.06 0.44 c-0.04 0.06 -0.04 0.08 -0.04 0.1 s0.06 -0.02 0.06 0.02 c0 0.08 -0.08 0.22 -0.08 0.36 c0 0.16 0.1 0.32 0.46 0.32 c1.18 0 2.06 -0.08 3.06 -0.08 c0 0 0.12 0.02 0.14 0.02 l1.2 0 c0.06 0 0.14 0.06 0.26 0.06 c0.18 0 0.56 -0.06 0.56 -0.36 c0 -1.26 -0.04 -1.42 -0.04 -2.06 c0 -0.12 0.04 -0.3 0.04 -0.5 c0 -0.6 -0.04 -1 -0.04 -1.44 l0.02 -0.14 s-0.02 -0.16 -0.02 -0.22 c0 -0.36 0.02 -0.5 0.02 -1.06 l-0.02 0.02 c-0.02 -0.06 0.12 -0.74 -0.3 -0.74 c-0.04 0 -0.1 0.02 -0.14 0.02 c-0.2 0 -0.56 -0.04 -0.54 -0.04 c-0.14 0 -0.26 0.04 -0.36 0.04 c-0.56 0 -0.6 -0.3 -0.6 -0.3 c0 -0.2 0.34 -0.4 0.9 -0.4 c0.02 0.02 -0.02 -0.02 0.22 0.04 c0.34 0 0.34 0.02 0.38 -0.04 c0.24 0 0.46 0.06 0.7 0.06 c0.04 0 0.08 -0.02 0.14 -0.06 c0.04 0 0.14 0.04 0.18 0.04 l1.72 0 c0.08 0 0.28 -0.04 0.36 -0.06 c0.04 0 0.04 0.06 0.04 0.06 l0.96 0 l0.06 -0.04 c0.3 0.08 0.76 0.04 0.94 0.08 l0.12 0.12 c0 0.3 0.04 0.66 -0.64 0.66 c0 -0.12 -1.16 -0.16 -1.16 -0.16 l0 0 c0 0.02 0.02 -0.04 -0.02 -0.04 c-0.06 0 -0.1 0.24 -0.18 1.8 c0 0.08 0.04 0.12 0.04 0.24 c0 0.06 0 0.1 -0.04 0.14 c0 0.02 0.04 0.1 0.04 0.14 l0.04 1.08 l0 8.12 c0 0.04 0.04 0.26 0.04 0.28 c0 0.06 -0.04 0.14 -0.04 0.4 c0 0.08 0 0.44 0.04 0.54 l0 0.1 c0 1 0.1 1.08 0.48 1.08 c0.1 0 0.22 -0.02 0.34 -0.02 c0.06 0 0.16 0.02 0.26 0.02 c0.12 0 0.24 -0.02 0.3 -0.08 c0.48 0.1 0.54 0.2 0.54 0.48 c0 0.12 -0.06 0.3 -0.52 0.3 c-0.68 0 -3.36 -0.14 -5.82 -0.14 z M28.438000000000002 19.92 l-0.02 -0.04 z M29.178 19.88 l0 0.04 l0.32 0 c0 -0.1 -0.1 -0.16 -0.16 -0.16 c-0.06 0.06 -0.12 0.14 -0.16 0.12 z M34.478 19.88 l0.06 0.04 c-0.02 0 -0.04 -0.02 -0.06 -0.04 z M38.498000000000005 19.88 l0 0.04 l0.02 -0.04 l-0.02 0 z M33.918 19.76 c0 0.14 0.06 0.12 0.08 0.16 l0 -0.18 c-0.04 0 -0.06 0 -0.08 0.02 z M37.878 19.86 l0 0.02 l0.04 0 z M38.638000000000005 19.86 l0 0.02 l0.02 0 z M37.418 19.78 l0 0.08 c0.02 -0.02 0.04 -0.04 0.04 -0.08 l-0.04 0 z M29.698 19.74 c0.1 0 0.16 0.02 0.26 0.08 c-0.04 0 0.1 0 0.1 -0.04 s-0.2 -0.1 -0.36 -0.12 l0 0.08 z M36.918 19.62 l-0.04 0.12 l0.04 0 l0 -0.12 z M28.478 19.58 c-0.02 0 -0.04 0.02 -0.04 0.04 s0.02 0.04 0.04 0.04 s0.02 -0.02 0.02 -0.04 s0 -0.04 -0.02 -0.04 z M39.218 19.58 l-0.04 0 c0 0.02 0 0.04 0.02 0.04 c0 0 0.02 -0.02 0.02 -0.04 z M30.558 13.96 c-0.02 0 -0.04 0.02 -0.04 0.04 c0 0 0.02 0.02 0.04 0.02 l0.02 -0.02 c0 -0.02 -0.02 -0.04 -0.02 -0.04 z M32.438 12.86 c-0.04 0 -0.06 0 -0.06 0.04 l0.06 0 l0 -0.04 z M30.318 11.5 c-0.02 0 -0.04 0.02 -0.04 0.04 s0.02 0.04 0.04 0.04 s0.02 -0.02 0.02 -0.04 s0 -0.04 -0.02 -0.04 z M30.238 9.5 l0.02 0 l-0.04 0 s-0.02 0 0.02 0 z M32.198 9.42 c0 0.02 -0.02 0.02 -0.02 0.04 s0.02 0.02 0.04 0.04 l0.02 -0.08 l-0.04 0 z M30.318 8 l0 0.04 l0.02 0.02 c0.02 0 0.04 -0.02 0.06 -0.06 l-0.08 0 z M30.278000000000002 7.66 l0.04 0.02 l0.04 -0.02 l-0.08 0 z M39.098 7.539999999999999 c-0.02 0 -0.02 0.02 -0.02 0.04 s0 0.04 0.02 0.04 s0.02 -0.02 0.02 -0.04 s0 -0.04 -0.02 -0.04 z M29.678 5.359999999999999 c0 0.02 0 0.04 0.02 0.06 c0.04 -0.02 0.04 -0.06 0.04 -0.08 c-0.04 0 -0.06 0.02 -0.06 0.02 z M41.378 5.359999999999999 l0 0.02 l0.02 0 c0 -0.02 0 -0.02 -0.02 -0.02 z M38.878 5.359999999999999 l-0.08 -0.02 z M42.138000000000005 5.34 c-0.02 0 -0.04 0.02 -0.04 0.02 s0.02 0.02 0.04 0.02 l0.02 -0.02 z M28.518 5.1 c-0.16 0 -0.16 0.08 -0.16 0.24 c0 0 0.16 0 0.16 -0.24 z M43.198 5.140000000000001 l0 0.16 l0.1 0 c0 -0.14 -0.12 -0.16 -0.1 -0.16 z M29.858 5.24 c0 0 -0.02 0.02 -0.02 0.04 l0.02 0.02 c0.02 0 0.02 -0.02 0.02 -0.02 c0 -0.02 0 -0.04 -0.02 -0.04 z M33.458 5.140000000000001 c0.02 0.04 0.04 0.08 0.04 0.12 c0.1 0 0.08 0 0.12 -0.02 c0 -0.08 -0.06 -0.1 -0.1 -0.1 l-0.06 0 z M38.138000000000005 5.18 c0 0 -0.02 0 -0.02 0.02 s0.02 0.04 0.02 0.04 c0.02 0 0.02 -0.02 0.02 -0.04 s0 -0.02 -0.02 -0.02 z M42.878 5 c0 0.02 0 0.18 0.1 0.24 c0 -0.04 0.02 -0.14 0.02 -0.24 l-0.12 0 z M36.918 5.08 l0 0.1 c0.04 -0.02 0.04 -0.06 0.04 -0.1 l-0.04 0 z M39.718 5.140000000000001 c-0.02 0 -0.02 0.02 -0.02 0.02 c0 0.02 0 0.02 0.02 0.02 s0.02 0 0.02 -0.02 c0 0 0 -0.02 -0.02 -0.02 z M40.838 5.1 l-0.02 0.02 c0 0.02 0.02 0.02 0.02 0.02 c0.02 0 0.02 0 0.02 -0.02 c0 0 0 -0.02 -0.02 -0.02 z M29.858 5.08 c0 0 -0.02 0.02 -0.02 0.04 l0.02 0.02 c0.02 0 0.02 -0.02 0.02 -0.02 c0 -0.02 0 -0.04 -0.02 -0.04 z M34.278 5.1 l-0.02 -0.02 c-0.02 0 -0.02 0.02 -0.02 0.02 c0 0.02 0 0.04 0.02 0.04 c0 0 0.02 -0.02 0.02 -0.04 z M33.458 5.039999999999999 c-0.02 0 -0.04 0.02 -0.04 0.04 c0 0 0.02 0.02 0.04 0.02 l0 -0.06 z M38.878 5.039999999999999 c-0.02 0 -0.02 0.02 -0.02 0.04 c0 0 0 0.02 0.02 0.02 s0.02 -0.02 0.02 -0.02 c0 -0.02 0 -0.04 -0.02 -0.04 z M42.598 5.08 c0 -0.02 -0.02 -0.02 -0.04 -0.02 s-0.04 0 -0.04 0.02 s0.02 0.02 0.04 0.02 s0.04 0 0.04 -0.02 z M47.657000000000004 20.08 c-0.22 0 -0.22 0.02 -0.36 0.02 c-0.04 0 -0.22 -0.16 -0.28 -0.22 c0 0 0.04 -0.3 0.04 -0.36 c0.72 -0.06 1.24 -0.08 1.8 -0.14 c0.06 0 0 -0.38 0.22 -0.38 l0 -0.32 c0.02 0.02 0.04 0.02 0.04 0.02 c0.12 0 0.1 -0.56 0.26 -0.6 c0 -0.04 0.08 -0.72 0.28 -0.88 l0.1 -0.38 s0.68 -2.32 0.94 -2.32 c0.02 0 0.06 0.02 0.08 0.02 c0.1 0 0.12 -0.04 0.12 -0.08 c0 -0.18 -0.16 -0.1 -0.16 -0.24 c0 -0.36 0.36 -1.04 0.4 -1.08 c0.02 -0.82 0.32 -0.62 0.32 -1.14 l0 0.02 c0.02 0 0.18 -0.5 0.26 -0.56 c0 0.04 0.02 0.04 0.02 0.04 s-0.02 0 -0.02 -0.02 c0 -0.12 0.4 -0.94 0.4 -1.16 c0.1 0 0.12 -0.02 0.12 -0.06 s-0.02 -0.08 -0.02 -0.14 c0 -0.12 0.04 -0.24 0.18 -0.4 l0 0.02 c0.04 0 0.02 -0.44 0.18 -0.44 l0.08 -0.38 l0.12 -0.1 l0 -0.32 l0.16 -0.12 l0 -0.34 s0.12 -0.04 0.12 -0.08 c-0.02 0 -0.04 -0.04 -0.04 -0.06 c0 -0.26 0.5 -1.02 0.5 -1.54 l0.1 -0.08 l0 -0.32 c0 0.02 0.02 0.02 0.02 0.02 c0.28 0 -0.1 -1.16 0.94 -1.16 c0.08 0 0.44 0.22 0.44 0.52 c0.08 0.08 -0.08 0.28 0.28 0.94 c0.02 0 0.5 1.3 0.5 1.64 c0.18 0 0.06 0.4 0.52 1.36 c0.12 0.54 0.34 0.52 0.34 0.76 l0 -0.02 s0.1 0.64 0.18 0.64 l-0.02 0 c0 0.08 0.48 0.6 0.48 1.22 c0.12 0.58 0.32 0.34 0.32 0.84 l-0.02 -0.02 c0 0.04 0.32 0.46 0.32 0.72 c-0.02 0 -0.04 0 -0.04 0.02 c0 0.08 0.22 0.36 0.22 0.46 c0 0.02 -0.02 0.02 -0.02 0.04 c0 0.04 0.2 0.2 0.2 0.56 c0.08 0.7 0.42 0.74 0.42 1.18 c-0.02 0.04 -0.04 0.06 -0.04 0.08 c0 0.1 0.32 0.1 0.32 0.56 c0 1.14 0.78 1.4 0.78 2.2 c0.08 0.64 0.46 0.86 0.52 0.9 l1.3 0 c0.08 0 0.2 0.06 0.26 0.1 l0 0.36 c-0.08 0.04 -0.14 0.12 -0.46 0.12 c-0.04 0 -1 -0.04 -1.4 -0.04 c-0.18 0 -0.34 0.04 -0.5 0.04 c-0.02 0 -0.34 -0.04 -0.38 -0.04 c-1.08 0 -1.76 0.06 -2.18 0.06 c-0.02 0 -0.02 -0.06 -0.34 -0.06 c-0.16 0 -0.2 0 -0.28 0.04 c-0.1 0 -0.18 -0.04 -0.22 -0.1 c-0.04 0 -0.12 0.02 -0.12 0.02 l0.04 0.04 l-0.04 0.04 c-0.66 0 -0.72 0 -0.86 -0.12 l0.04 -0.34 c0 -0.04 0.14 -0.12 0.22 -0.12 l1.5 0 c0.02 0.02 0.16 -0.1 0.16 -0.2 c0 -0.04 -0.32 -0.46 -0.32 -0.7 c0.04 -0.02 0.04 -0.02 0.04 -0.06 c0 -0.1 -0.34 -0.36 -0.34 -0.88 c0.02 0 0.02 0 0.02 -0.02 c0 -0.04 -0.22 -0.2 -0.22 -0.36 c0 -0.72 -0.32 -0.72 -0.32 -1.26 l0 0.02 c-0.04 0 -0.22 -0.5 -0.4 -0.5 c-1.34 0 -2.76 0.04 -4.38 0.04 c0 0.08 -0.16 0.12 -0.16 0.34 c-0.3 0.66 -0.34 0.56 -0.34 0.88 c-0.24 0.16 0.02 0.28 -0.26 0.62 c-0.16 1.1 -0.38 0.48 -0.38 1.22 l0 -0.02 c-0.04 0 -0.22 0.52 -0.24 0.52 c0 0.32 0.08 0.32 0.2 0.4 l1.6 0 c0.1 0 0.3 0.02 0.3 0.26 s-0.06 0.36 -0.42 0.36 c-0.06 0 -0.14 -0.04 -0.24 -0.04 c-0.22 0 -0.3 0.04 -0.4 0.04 c-0.04 0 -0.14 -0.04 -0.16 -0.04 l-1.42 0 c-0.04 0.04 -0.08 0.04 -0.12 0.04 c-0.06 0 -0.16 -0.02 -0.24 -0.08 c0 0 0.04 -0.04 0.04 -0.08 l-0.06 0 c-0.04 0 -0.06 0 -0.06 0.04 l0.02 0.04 c-0.02 0.08 -0.04 0.08 -0.16 0.08 c0 -0.26 0 -0.2 0.06 -0.28 c-0.02 -0.08 0.02 -0.18 -0.04 -0.22 c0 0.14 -0.06 0.24 -0.18 0.32 c0 0.04 0.06 0.08 0.1 0.1 c-0.08 0 -0.3 0.1 -0.34 0.16 c-0.36 0 -0.32 -0.08 -0.54 -0.08 z M47.497 19.92 l0 0.04 l0.1 0 c-0.06 -0.04 -0.08 -0.04 -0.1 -0.04 z M47.837 19.96 c0 -0.02 -0.02 -0.02 -0.04 -0.02 s-0.04 0 -0.04 0.02 s0.02 0.04 0.04 0.04 s0.04 -0.02 0.04 -0.04 z M47.957 19.92 c-0.02 0 -0.04 0.02 -0.04 0.04 s0.02 0.04 0.04 0.04 s0.02 -0.02 0.02 -0.04 s0 -0.04 -0.02 -0.04 z M48.397 19.88 c-0.12 0 -0.28 0.04 -0.32 0.08 c0.34 0 0.24 -0.02 0.32 -0.08 z M49.057 19.9 c0 0.02 0.16 0.04 0.18 0.06 l0.04 -0.04 c-0.1 -0.02 -0.2 -0.02 -0.22 -0.02 z M50.537 19.92 c0.26 0 0.66 0.04 0.76 0.04 c-0.22 0 -0.22 -0.22 -0.24 -0.32 c0.02 0 -0.16 0.04 -0.16 0.16 c-0.04 0 -0.02 -0.12 -0.18 -0.12 c0 0.14 -0.08 0.18 -0.18 0.24 z M51.457 19.92 l0.04 0.04 c0.02 0 0.14 -0.04 0.18 -0.04 l-0.22 0 z M48.697 19.9 c-0.02 0 -0.04 0.02 -0.04 0.04 c0 0 0.02 0.02 0.04 0.02 s0.02 -0.02 0.02 -0.02 c0 -0.02 0 -0.04 -0.02 -0.04 z M50.277 19.92 c0 0 -0.04 -0.02 -0.06 -0.02 c-0.04 0 -0.04 0.02 -0.04 0.02 c0 0.02 0 0.04 0.04 0.04 c0.02 0 0.06 -0.02 0.06 -0.04 z M55.197 19.88 c0.02 0.02 0.08 0.04 0.1 0.04 s0.12 -0.02 0.16 -0.04 l0 -0.24 s-0.04 -0.02 -0.06 -0.02 c-0.18 0 -0.2 0.04 -0.2 0.12 l0 0.14 z M60.617000000000004 19.9 c0.06 0 0.08 0.02 0.18 0.02 c0.02 0 0.12 -0.02 0.18 -0.02 l-0.36 0 z M61.577 19.9 l0 0.02 l0.02 -0.02 l-0.02 0 z M55.757000000000005 19.88 l-0.04 0.02 l0.06 0.02 z M57.257000000000005 19.88 c-0.02 0 -0.04 0.02 -0.04 0.02 s0.02 0.02 0.04 0.02 s0.02 -0.02 0.02 -0.02 s0 -0.02 -0.02 -0.02 z M59.997 19.88 c0.02 0.02 0.04 0.02 0.1 0.02 l0.38 0 c-0.02 -0.02 -0.06 -0.04 -0.1 -0.06 c-0.04 0.04 -0.1 0.04 -0.12 0.04 c-0.18 0 -0.14 -0.14 -0.18 -0.14 z M47.177 19.74 c0 0.12 0 0.1 0.04 0.14 l0.26 0 l0 -0.34 c-0.28 0.14 -0.3 0.08 -0.3 0.2 z M51.397000000000006 19.78 l0 0.1 c0.04 0 0.06 -0.04 0.06 -0.04 c-0.02 -0.12 -0.08 -0.12 -0.08 -0.22 c-0.08 0 -0.12 0.04 -0.12 0.06 c0.02 0.04 0.04 0.1 0.14 0.1 z M61.177 19.84 c-0.02 0 -0.02 0.02 -0.02 0.04 s0 0.02 0.02 0.02 s0.02 0 0.02 -0.02 s0 -0.04 -0.02 -0.04 z M47.717 19.62 c0 0.16 -0.02 0.2 -0.06 0.22 c0.12 0 0.22 0 0.22 -0.12 s-0.02 -0.1 -0.16 -0.1 z M49.837 19.8 l0 0.04 l0.04 0 z M50.197 19.72 l0.04 0.02 l0 -0.06 z M51.497 19.58 c0 0.02 0 0.06 0.02 0.06 c0 0 0.08 0 0.08 -0.06 c0 -0.04 -0.04 -0.04 -0.08 -0.06 c-0.02 0.02 -0.02 0.04 -0.02 0.06 z M60.637 19.62 c0 0.02 0.04 0.02 0.06 0.02 c0 -0.1 0 -0.1 -0.04 -0.12 c0 0 -0.02 0.06 -0.02 0.1 z M61.517 19.48 c-0.1 0.02 -0.08 0.06 -0.08 0.16 l0.16 -0.1 c0 -0.02 -0.06 -0.04 -0.08 -0.06 z M59.997 19.54 c-0.02 0 -0.04 0.02 -0.04 0.02 c0 0.02 0.02 0.02 0.04 0.02 s0.02 0 0.02 -0.02 c0 0 0 -0.02 -0.02 -0.02 z M49.017 19.48 l0 0.06 l0.04 -0.06 l-0.04 0 z M49.077 19.18 c0 0.02 0.02 0.3 0.2 0.3 c-0.04 -0.02 -0.1 -0.2 -0.1 -0.3 l0.04 -0.12 l-0.04 -0.04 c-0.08 0 -0.1 0.12 -0.1 0.16 z M49.817 18.24 c-0.06 0.04 -0.14 0.16 -0.14 0.32 c0.02 0.02 0.04 0.02 0.04 0.02 c0.08 0 0.1 -0.12 0.12 -0.18 c0 -0.02 -0.02 -0.18 -0.02 -0.16 z M49.717 17.72 c0 -0.02 -0.02 -0.02 -0.02 -0.02 c-0.02 0 -0.02 0 -0.02 0.02 s0 0.02 0.02 0.02 c0 0 0.02 0 0.02 -0.02 z M50.277 16.28 c-0.02 0 -0.04 0.02 -0.04 0.02 s0.02 0.02 0.04 0.02 l0.02 -0.02 z M55.957 16 c-0.02 0 -0.02 0.02 -0.02 0.04 s0 0.04 0.02 0.04 s0.02 -0.02 0.02 -0.04 s0 -0.04 -0.02 -0.04 z M50.457 15.84 c-0.02 0 -0.02 0.02 -0.02 0.04 s0 0.04 0.02 0.04 s0.02 -0.02 0.02 -0.04 s0 -0.04 -0.02 -0.04 z M50.457 15.42 c-0.02 0 -0.02 0.02 -0.02 0.02 c0 0.02 0 0.02 0.02 0.02 s0.02 0 0.02 -0.02 c0 0 0 -0.02 -0.02 -0.02 z M51.377 14.6 c0.06 0.24 0.08 0.26 0.22 0.34 c0.24 0 0.9 -0.04 2.72 -0.04 c0.16 0 0.24 0.06 0.64 0.06 c0.2 0 0.4 -0.06 0.4 -0.28 c0 -0.1 -0.26 -0.48 -0.26 -0.68 l0.02 0 c0 -0.04 -0.22 -0.22 -0.22 -0.44 c0 -0.74 -0.38 -0.66 -0.38 -1.12 c0.02 0.02 0.02 0.04 0.02 0.04 c-0.02 0 -0.38 -0.66 -0.38 -1.04 c0 -0.26 -0.36 -0.64 -0.36 -1.08 l0.02 0 c0 -0.04 -0.22 -0.24 -0.22 -0.48 c-0.18 -0.42 -0.2 -0.38 -0.36 -0.38 c-0.58 1.38 -0.54 1.4 -0.72 1.74 c0 -0.04 -0.02 0.64 -0.28 0.74 l0 -0.04 c-0.02 0 -0.22 1.14 -0.42 1.32 c0 0.26 -0.44 0.6 -0.44 1.34 z M50.977000000000004 14.04 c-0.02 0 -0.04 0.02 -0.04 0.04 s0.02 0.04 0.04 0.04 s0.02 -0.02 0.02 -0.04 s0 -0.04 -0.02 -0.04 z M51.437 12.719999999999999 c-0.02 0 -0.04 0.02 -0.04 0.04 c0 0 0.02 0.02 0.04 0.02 l0 -0.06 z M52.277 11.54 l0 0.02 l0.02 0 z M52.197 11.22 c-0.02 0 -0.04 0.02 -0.04 0.04 l0.04 0 l0.02 0 c0 -0.02 0 -0.04 -0.02 -0.04 z M52.277 10.7 c-0.02 0 -0.04 0.02 -0.04 0.02 c0 0.02 0.02 0.04 0.04 0.04 c0 0 0.02 -0.02 0.02 -0.04 z M52.817 9.34 c0 -0.02 -0.02 -0.02 -0.02 -0.02 c-0.02 0 -0.02 0 -0.02 0.02 s0 0.04 0.02 0.04 c0 0 0.02 -0.02 0.02 -0.04 z M52.877 9.28 l-0.02 0 c0 0.02 0.02 0.02 0.02 0.02 s0.02 0 0.02 -0.02 l-0.02 0 z M55.057 7.880000000000001 c-0.02 0 -0.02 0.02 -0.02 0.04 s0 0.04 0.02 0.04 s0.02 -0.02 0.02 -0.04 s0 -0.04 -0.02 -0.04 z M54.677 5.1 c0 0 -0.02 0.02 -0.02 0.04 l0.04 0 c0 -0.02 0 -0.04 -0.02 -0.04 z M54.157000000000004 5.0600000000000005 c-0.02 0 -0.02 0.02 -0.02 0.04 s0 0.04 0.02 0.04 s0.02 -0.02 0.02 -0.04 s0 -0.04 -0.02 -0.04 z M54.317 5.0600000000000005 l0.08 0.04 c0.16 0 0.1 0 0.16 -0.04 l-0.06 -0.08 c-0.08 0 -0.12 0.08 -0.18 0.08 z M65.33600000000001 19.76 c0 -0.4 0.1 -0.28 0.26 -0.4 l1.5 0 c0.04 0 0.2 -0.16 0.2 -0.32 l0 -2.22 c0 -0.06 0.02 -0.14 0.02 -0.22 c0 0 -0.02 -0.16 -0.02 -0.18 c0 -0.34 0 -0.44 0.02 -0.54 c0 -1.86 -0.04 -6.22 -0.04 -10.12 c0 -0.14 -0.22 -0.14 -0.42 -0.28 c-0.06 0 -0.3 0.14 -0.44 0.14 l-0.92 0 c-0.08 -0.1 -0.24 -0.18 -0.24 -0.46 c0 -0.1 0.1 -0.28 0.78 -0.28 c0.8 0 2.28 0.06 2.62 0.06 c1.38 0 3.12 -0.04 3.84 -0.04 c2.12 0 2.7 0.44 3.18 0.54 l0.02 -0.02 c0.08 0 0.24 0.32 0.78 0.46 c0.14 0 0.7 0.64 0.76 0.66 c0 0.24 0.84 0.7 0.84 2.52 c0 0.86 -0.22 0.86 -0.24 1.16 l0 -0.02 c-0.04 0 -0.18 0.44 -0.28 0.44 c0 0 -0.18 0.46 -0.32 0.56 c-0.78 0.76 -0.6 0.4 -1.48 1.14 c-0.42 0 -0.28 0.36 -0.8 0.36 c-1.42 0.06 -1.02 0.3 -1.9 0.3 c-1 0.1 -1.34 0.18 -2.68 0.18 c0 0.02 -0.16 0.02 -0.16 0.42 l0.04 2.54 l-0.04 0.08 l0 0.3 c0 0.16 0 0.3 0.04 0.34 c0 0 -0.06 0.08 -0.06 1.22 c0 0.62 0.06 1.32 0.46 1.32 c0.22 0 0.36 -0.04 0.5 -0.04 c1.42 0 1.14 0.06 1.3 0.36 c-0.12 0.1 -0.04 0.26 -0.24 0.26 l-0.5 0 c-0.04 -0.14 -0.14 -0.14 -0.24 -0.2 c-0.04 0.02 -0.08 0.02 -0.08 0.06 l0.2 0.1 l-0.04 0.04 l-0.62 0 l-0.1 -0.04 c-0.06 0 -0.24 0.04 -0.32 0.04 l-2.28 0 c-0.04 0 -0.26 0.04 -0.32 0.04 c-0.32 0 -1.16 -0.02 -1.18 -0.08 l0 -0.02 c-0.06 0 -0.34 0.1 -0.8 0.1 c-0.54 0 -0.62 -0.12 -0.62 -0.2 c0 -0.04 0.02 -0.06 0.02 -0.06 z M66.49600000000001 19.84 c0.02 0.04 0.06 0.1 0.08 0.1 s0.06 -0.02 0.16 -0.06 c0 0 -0.08 -0.06 -0.12 -0.06 c-0.1 0 -0.08 0 -0.12 0.02 z M66.19600000000001 19.88 l0 -0.02 c-0.02 0 -0.02 0 -0.02 0.02 s0 0.04 0.02 0.04 l0 -0.04 z M67.096 19.88 c0 -0.02 -0.02 -0.02 -0.08 -0.02 c-0.04 0 -0.08 0 -0.08 0.02 s0.04 0.04 0.08 0.04 s0.08 -0.02 0.08 -0.04 z M68.236 19.84 c-0.02 0 -0.04 0.02 -0.04 0.04 s0.02 0.04 0.04 0.04 c0 0 0.02 -0.02 0.02 -0.04 s-0.02 -0.04 -0.02 -0.04 z M70.89600000000002 19.84 c-0.02 -0.02 -0.02 0.02 -0.02 0.04 c0 0 0.02 -0.02 0.02 -0.04 z M65.75600000000001 19.78 c-0.02 0 -0.04 0.02 -0.04 0.04 s0.02 0.02 0.04 0.02 s0.02 0 0.02 -0.02 s0 -0.04 -0.02 -0.04 z M65.71600000000001 19.76 c-0.02 0 -0.04 0.02 -0.04 0.04 c0 0 0.02 0.02 0.04 0.02 s0.02 -0.02 0.02 -0.02 c0 -0.02 0 -0.04 -0.02 -0.04 z M71.75600000000001 19.52 c0 0.1 0.1 0.18 0.24 0.24 c0.28 0 0.28 -0.08 0.32 -0.12 c-0.02 -0.16 -0.1 -0.16 -0.16 -0.16 c-0.02 0 -0.04 0.08 -0.06 0.12 c-0.2 0 -0.2 -0.12 -0.32 -0.12 c-0.02 0 -0.02 0.02 -0.02 0.04 z M65.83600000000001 19.52 c0 -0.02 0 -0.02 -0.02 -0.02 c0 0 -0.02 0 -0.02 0.02 s0.02 0.04 0.02 0.04 c0.02 0 0.02 -0.02 0.02 -0.04 z M67.67600000000002 19.48 c-0.02 0 -0.04 0.02 -0.04 0.04 s0.02 0.04 0.04 0.04 s0.02 -0.02 0.02 -0.04 s0 -0.04 -0.02 -0.04 z M67.55600000000001 19.44 c-0.02 0 -0.04 0.02 -0.04 0.04 l0.04 0 l0.02 0 c0 -0.02 0 -0.04 -0.02 -0.04 z M70.19600000000001 10.54 c0 1.32 -0.04 2.06 0.26 2.12 l0.78 0 c0.02 0 0.08 -0.02 0.12 -0.02 c0.64 -0.16 0.84 -0.08 1.3 -0.22 c0.9 0 0.94 -0.38 1.22 -0.46 c0.14 0 0.48 -0.58 0.58 -0.68 l-0.02 0 c0 -0.04 0.22 -0.26 0.22 -0.5 c0 -0.44 0.2 -0.24 0.2 -1.22 c0 -1.06 -0.16 -2.14 -0.16 -2.5 c0.02 -0.02 0.02 -0.04 0.02 -0.06 c0 -0.1 -0.24 -0.22 -0.24 -0.36 c0 -0.02 0.02 -0.04 0.02 -0.06 c0 -0.72 -1.74 -1 -2.02 -1 c-0.26 0 -0.62 0.02 -1.16 0.02 c-0.06 -0.04 -0.12 -0.04 -0.18 -0.04 c-0.2 0 -0.42 0.04 -0.62 0.04 l-0.08 0 c-0.08 0 -0.2 0.06 -0.24 0.46 l0 1.1 s-0.04 0.08 -0.04 0.1 c0.06 0.34 0.06 0.8 0.06 1.28 c0 0.28 -0.02 1.98 -0.02 2 z M67.456 11.86 c0 0.04 0 0.06 0.02 0.06 z M73.95600000000002 5.4399999999999995 c-0.02 0 -0.02 0.02 -0.02 0.04 s0 0.04 0.02 0.04 s0.02 -0.02 0.02 -0.04 s0 -0.04 -0.02 -0.04 z M66.17600000000002 5.359999999999999 c-0.04 0 -0.14 0.04 -0.14 0.08 l0.02 0 s0.06 0 0.06 0.02 c0.02 0 0.06 -0.02 0.06 -0.1 z M66.39600000000002 5.4 c-0.02 0 -0.02 0.02 -0.02 0.04 l0.04 0 c0 -0.02 -0.02 -0.04 -0.02 -0.04 z M66.85600000000001 5.4399999999999995 c0 -0.02 -0.04 -0.02 -0.06 -0.02 c-0.04 0 -0.06 0 -0.06 0.02 c-0.02 0 0.1 0 0.12 0 z M73.876 5.359999999999999 l0.02 0.08 s0.04 0 0.06 -0.08 l-0.08 0 z M73.83600000000001 5.279999999999999 c-0.02 0 -0.04 0.02 -0.04 0.04 s0.02 0.04 0.04 0.04 s0.02 -0.02 0.02 -0.04 s0 -0.04 -0.02 -0.04 z M65.596 5.08 c-0.08 0.06 -0.1 0.16 -0.12 0.2 c0.12 -0.06 0.12 -0.08 0.12 -0.2 z M66.11600000000001 5.140000000000001 c-0.04 0 -0.12 0.04 -0.12 0.08 c0 0.02 0.04 0.02 0.08 0.02 s0.08 0 0.1 -0.04 c0 -0.06 -0.04 -0.06 -0.06 -0.06 z M72.156 5.24 c0 -0.02 -0.02 -0.02 -0.04 -0.02 c-0.04 0 -0.06 0 -0.06 0.02 s0.02 0.02 0.06 0.02 c0.02 0 0.04 0 0.04 -0.02 z M67.17600000000002 5.16 l-0.04 0.04 l0.04 0 l0 -0.04 z M81.59500000000001 19.76 c0 -0.4 0.1 -0.28 0.26 -0.4 l1.5 0 c0.04 0 0.2 -0.16 0.2 -0.32 l0 -2.22 c0 -0.06 0.02 -0.14 0.02 -0.22 c0 0 -0.02 -0.16 -0.02 -0.18 c0 -0.34 0 -0.44 0.02 -0.54 c0 -1.86 -0.04 -6.22 -0.04 -10.12 c0 -0.14 -0.22 -0.14 -0.42 -0.28 c-0.06 0 -0.3 0.14 -0.44 0.14 l-0.92 0 c-0.08 -0.1 -0.24 -0.18 -0.24 -0.46 c0 -0.1 0.1 -0.28 0.78 -0.28 c0.8 0 2.28 0.06 2.62 0.06 c1.38 0 3.12 -0.04 3.84 -0.04 c2.12 0 2.7 0.44 3.18 0.54 l0.02 -0.02 c0.08 0 0.24 0.32 0.78 0.46 c0.14 0 0.7 0.64 0.76 0.66 c0 0.24 0.84 0.7 0.84 2.52 c0 0.86 -0.22 0.86 -0.24 1.16 l0 -0.02 c-0.04 0 -0.18 0.44 -0.28 0.44 c0 0 -0.18 0.46 -0.32 0.56 c-0.78 0.76 -0.6 0.4 -1.48 1.14 c-0.42 0 -0.28 0.36 -0.8 0.36 c-1.42 0.06 -1.02 0.3 -1.9 0.3 c-1 0.1 -1.34 0.18 -2.68 0.18 c0 0.02 -0.16 0.02 -0.16 0.42 l0.04 2.54 l-0.04 0.08 l0 0.3 c0 0.16 0 0.3 0.04 0.34 c0 0 -0.06 0.08 -0.06 1.22 c0 0.62 0.06 1.32 0.46 1.32 c0.22 0 0.36 -0.04 0.5 -0.04 c1.42 0 1.14 0.06 1.3 0.36 c-0.12 0.1 -0.04 0.26 -0.24 0.26 l-0.5 0 c-0.04 -0.14 -0.14 -0.14 -0.24 -0.2 c-0.04 0.02 -0.08 0.02 -0.08 0.06 l0.2 0.1 l-0.04 0.04 l-0.62 0 l-0.1 -0.04 c-0.06 0 -0.24 0.04 -0.32 0.04 l-2.28 0 c-0.04 0 -0.26 0.04 -0.32 0.04 c-0.32 0 -1.16 -0.02 -1.18 -0.08 l0 -0.02 c-0.06 0 -0.34 0.1 -0.8 0.1 c-0.54 0 -0.62 -0.12 -0.62 -0.2 c0 -0.04 0.02 -0.06 0.02 -0.06 z M82.75500000000001 19.84 c0.02 0.04 0.06 0.1 0.08 0.1 s0.06 -0.02 0.16 -0.06 c0 0 -0.08 -0.06 -0.12 -0.06 c-0.1 0 -0.08 0 -0.12 0.02 z M82.45500000000001 19.88 l0 -0.02 c-0.02 0 -0.02 0 -0.02 0.02 s0 0.04 0.02 0.04 l0 -0.04 z M83.355 19.88 c0 -0.02 -0.02 -0.02 -0.08 -0.02 c-0.04 0 -0.08 0 -0.08 0.02 s0.04 0.04 0.08 0.04 s0.08 -0.02 0.08 -0.04 z M84.495 19.84 c-0.02 0 -0.04 0.02 -0.04 0.04 s0.02 0.04 0.04 0.04 c0 0 0.02 -0.02 0.02 -0.04 s-0.02 -0.04 -0.02 -0.04 z M87.15500000000002 19.84 c-0.02 -0.02 -0.02 0.02 -0.02 0.04 c0 0 0.02 -0.02 0.02 -0.04 z M82.01500000000001 19.78 c-0.02 0 -0.04 0.02 -0.04 0.04 s0.02 0.02 0.04 0.02 s0.02 0 0.02 -0.02 s0 -0.04 -0.02 -0.04 z M81.97500000000001 19.76 c-0.02 0 -0.04 0.02 -0.04 0.04 c0 0 0.02 0.02 0.04 0.02 s0.02 -0.02 0.02 -0.02 c0 -0.02 0 -0.04 -0.02 -0.04 z M88.01500000000001 19.52 c0 0.1 0.1 0.18 0.24 0.24 c0.28 0 0.28 -0.08 0.32 -0.12 c-0.02 -0.16 -0.1 -0.16 -0.16 -0.16 c-0.02 0 -0.04 0.08 -0.06 0.12 c-0.2 0 -0.2 -0.12 -0.32 -0.12 c-0.02 0 -0.02 0.02 -0.02 0.04 z M82.09500000000001 19.52 c0 -0.02 0 -0.02 -0.02 -0.02 c0 0 -0.02 0 -0.02 0.02 s0.02 0.04 0.02 0.04 c0.02 0 0.02 -0.02 0.02 -0.04 z M83.93500000000002 19.48 c-0.02 0 -0.04 0.02 -0.04 0.04 s0.02 0.04 0.04 0.04 s0.02 -0.02 0.02 -0.04 s0 -0.04 -0.02 -0.04 z M83.81500000000001 19.44 c-0.02 0 -0.04 0.02 -0.04 0.04 l0.04 0 l0.02 0 c0 -0.02 0 -0.04 -0.02 -0.04 z M86.45500000000001 10.54 c0 1.32 -0.04 2.06 0.26 2.12 l0.78 0 c0.02 0 0.08 -0.02 0.12 -0.02 c0.64 -0.16 0.84 -0.08 1.3 -0.22 c0.9 0 0.94 -0.38 1.22 -0.46 c0.14 0 0.48 -0.58 0.58 -0.68 l-0.02 0 c0 -0.04 0.22 -0.26 0.22 -0.5 c0 -0.44 0.2 -0.24 0.2 -1.22 c0 -1.06 -0.16 -2.14 -0.16 -2.5 c0.02 -0.02 0.02 -0.04 0.02 -0.06 c0 -0.1 -0.24 -0.22 -0.24 -0.36 c0 -0.02 0.02 -0.04 0.02 -0.06 c0 -0.72 -1.74 -1 -2.02 -1 c-0.26 0 -0.62 0.02 -1.16 0.02 c-0.06 -0.04 -0.12 -0.04 -0.18 -0.04 c-0.2 0 -0.42 0.04 -0.62 0.04 l-0.08 0 c-0.08 0 -0.2 0.06 -0.24 0.46 l0 1.1 s-0.04 0.08 -0.04 0.1 c0.06 0.34 0.06 0.8 0.06 1.28 c0 0.28 -0.02 1.98 -0.02 2 z M83.715 11.86 c0 0.04 0 0.06 0.02 0.06 z M90.215 5.4399999999999995 c-0.02 0 -0.02 0.02 -0.02 0.04 s0 0.04 0.02 0.04 s0.02 -0.02 0.02 -0.04 s0 -0.04 -0.02 -0.04 z M82.43500000000002 5.359999999999999 c-0.04 0 -0.14 0.04 -0.14 0.08 l0.02 0 s0.06 0 0.06 0.02 c0.02 0 0.06 -0.02 0.06 -0.1 z M82.65500000000002 5.4 c-0.02 0 -0.02 0.02 -0.02 0.04 l0.04 0 c0 -0.02 -0.02 -0.04 -0.02 -0.04 z M83.11500000000001 5.4399999999999995 c0 -0.02 -0.04 -0.02 -0.06 -0.02 c-0.04 0 -0.06 0 -0.06 0.02 c-0.02 0 0.1 0 0.12 0 z M90.135 5.359999999999999 l0.02 0.08 s0.04 0 0.06 -0.08 l-0.08 0 z M90.09500000000001 5.279999999999999 c-0.02 0 -0.04 0.02 -0.04 0.04 s0.02 0.04 0.04 0.04 s0.02 -0.02 0.02 -0.04 s0 -0.04 -0.02 -0.04 z M81.855 5.08 c-0.08 0.06 -0.1 0.16 -0.12 0.2 c0.12 -0.06 0.12 -0.08 0.12 -0.2 z M82.37500000000001 5.140000000000001 c-0.04 0 -0.12 0.04 -0.12 0.08 c0 0.02 0.04 0.02 0.08 0.02 s0.08 0 0.1 -0.04 c0 -0.06 -0.04 -0.06 -0.06 -0.06 z M88.415 5.24 c0 -0.02 -0.02 -0.02 -0.04 -0.02 c-0.04 0 -0.06 0 -0.06 0.02 s0.02 0.02 0.06 0.02 c0.02 0 0.04 0 0.04 -0.02 z M83.43500000000002 5.16 l-0.04 0.04 l0.04 0 l0 -0.04 z M101.43400000000001 20.06 l-2.06 -0.06 l-0.04 0.02 l0.08 -0.12 c-0.02 -0.02 -0.04 -0.04 -0.06 -0.04 c-0.04 0 -0.08 0.14 -0.14 0.2 l-1.18 0 c-0.08 -0.14 -0.2 -0.22 -0.2 -0.32 c0 -0.06 0.04 -0.14 0.04 -0.18 c0.08 -0.12 -0.12 -0.24 1.14 -0.24 c0.12 0 0.26 0.04 0.4 0.04 c0.2 0 0.4 -0.08 0.44 -0.42 c0 -0.68 -0.02 -1.28 -0.02 -1.98 c0 -0.36 0.02 -0.84 0.02 -1.24 c0 -0.86 0 -1.66 -0.06 -2.28 c0 -0.42 0.06 -1.48 0.06 -3.5 c0 -0.08 -0.02 -0.24 -0.02 -0.32 c0 -0.18 0.02 -0.2 0.02 -0.44 c0 -0.18 -0.04 -0.38 -0.04 -0.56 c0 -0.14 0.02 -0.24 0.04 -0.32 c0 -0.02 -0.02 -0.12 -0.02 -0.22 s0 -0.14 0.02 -0.22 l0 -2.22 l-0.12 -0.08 l-1.06 0 c-0.06 0.04 -0.18 0.04 -0.3 0.04 c-0.08 0 -0.22 0.02 -0.22 -0.02 c0 -0.02 -0.32 0.06 -0.32 -0.36 c0.12 -0.32 0.08 -0.28 0.32 -0.4 c2.46 0 2.24 0.04 2.9 0.04 c0.24 0 1.92 -0.04 2.38 -0.04 l0.12 0.04 l1.22 0 c0.18 0.06 0.18 0.18 0.24 0.32 c0 0.18 0.02 0.32 -0.24 0.38 c-0.24 0 -0.74 -0.04 -1.24 -0.04 c-0.78 0 -0.58 0.16 -0.72 0.44 l0 5.5 c0 0.06 -0.04 0.42 -0.04 0.48 c0 0.04 0.04 0.1 0.04 0.14 l0 1.16 c0 0.02 0.04 0.16 0.04 0.2 l-0.04 0.08 l0 3.38 c0 0.06 0.04 0.14 0.04 0.16 s-0.02 0.06 -0.04 0.14 l0 1.34 l-0.04 0.1 c0 0.56 0.06 0.62 0.32 0.72 c0.32 0 0.92 0.04 1.5 0.04 c0.74 0 1.44 -0.06 1.6 -0.28 c-0.04 0 0.44 -0.02 0.58 -0.22 c0.08 0.02 0.26 -0.36 0.56 -0.36 c0.52 -0.62 -0.1 0.1 0.78 -0.78 c-0.02 0 -0.04 0 -0.04 -0.02 c0 -0.06 0.42 -0.3 0.42 -0.52 c-0.04 0 0.56 -1 0.56 -1.18 c0 -0.62 0.36 -0.96 0.52 -1.04 c0.36 0.02 0.58 -0.28 0.58 0.78 c0 0.76 -0.1 1.76 -0.18 1.74 c0 0.04 0.02 0.1 0.06 0.16 c0 0.02 -0.08 0.54 -0.08 1.76 c0 0.48 -0.16 0.32 -0.3 0.62 c-1.12 0 -1.12 -0.06 -1.62 -0.06 c-0.24 0 -0.6 0.06 -0.7 0.06 l-1.34 -0.04 c-0.28 0 -0.62 -0.02 -0.78 -0.02 c0.02 0 -0.36 0.04 -0.58 0.04 c-0.1 0 -0.16 -0.02 -0.2 -0.08 c-0.02 0 -0.38 0.08 -0.42 0.1 c0 0 -0.02 -0.04 -0.2 -0.04 c-0.1 0 -0.38 0.04 -0.64 0.04 c-0.14 0 -0.16 -0.04 -0.28 -0.04 c-0.04 0 -0.78 0.08 -1.04 0.08 c-0.06 0 -0.36 -0.04 -0.42 -0.04 z M98.23400000000001 19.72 c-0.04 0 -0.04 0.24 -0.04 0.28 l0.04 0 l0 -0.28 z M98.894 19.72 c0 0.04 0.08 0.2 0.16 0.28 c0.04 -0.04 0.08 -0.22 0.1 -0.2 c0 -0.02 -0.12 -0.08 -0.22 -0.08 l-0.04 0 z M98.81400000000001 19.92 c-0.02 0 -0.02 0.02 -0.02 0.04 s0 0.04 0.02 0.04 s0.02 -0.02 0.02 -0.04 s0 -0.04 -0.02 -0.04 z M104.43400000000001 19.86 l0 0.04 l0.04 -0.04 l-0.04 0 z M104.85400000000001 19.8 c0 0.06 0.02 0.06 0.04 0.1 c0.1 0 0.08 -0.06 0.12 -0.14 c-0.06 0 -0.12 0 -0.16 0.04 z M105.09400000000001 19.8 l0 0.1 c0.08 0 0.08 -0.04 0.08 -0.1 l-0.08 0 z M105.394 19.8 l0 0.06 l0.04 0 l0 -0.06 l-0.04 0 z M103.91400000000002 19.8 l0 0.04 l0.04 0.02 z M98.034 19.72 c-0.04 0.02 -0.06 0.02 -0.06 0.02 c0 0.04 0.08 0 0.08 0.1 z M99.87400000000001 19.72 c-0.04 0.02 -0.1 0.02 -0.12 0.04 c0.08 0 0.12 -0.02 0.12 -0.04 z M106.77400000000002 19.68 c0 -0.02 0 -0.02 -0.02 -0.02 l0 0.06 c0.02 0 0.02 -0.02 0.02 -0.04 z M106.23400000000001 19.56 c-0.06 0 -0.04 0.04 -0.08 0.08 c0.08 0 0.08 -0.06 0.08 -0.08 z M107.09400000000001 19.52 c0.02 0.02 0.02 0.1 0.08 0.12 c0 -0.1 0 -0.12 -0.04 -0.16 z M98.05400000000002 19.52 l0.1 0.04 l0.04 -0.04 l-0.04 -0.04 c-0.08 0 -0.08 0 -0.1 0.04 z M109.87400000000001 17.36 c-0.02 0 -0.04 0.02 -0.04 0.02 c0 0.02 0.02 0.02 0.04 0.02 s0.02 0 0.02 -0.02 c0 0 0 -0.02 -0.02 -0.02 z M102.23400000000001 16.32 l0 0.1 l0.14 0 c0 -0.04 -0.06 -0.1 -0.1 -0.1 l-0.04 0 z M109.87400000000001 16.34 c-0.02 0 -0.04 0.02 -0.04 0.04 s0.02 0.04 0.04 0.04 s0.02 -0.02 0.02 -0.04 s0 -0.04 -0.02 -0.04 z M109.93400000000001 15.32 c0 0.1 0 0.2 0.02 0.28 l0.08 0 l0 -0.28 l-0.1 0 z M109.614 15.26 c0 0.02 0.02 0.08 0.04 0.1 c0.04 0 0.1 -0.02 0.1 -0.04 c0 -0.06 -0.02 -0.08 -0.08 -0.08 c-0.02 0 -0.04 0 -0.06 0.02 z M99.99400000000001 9.14 l0 0.04 l0.04 0 l0 -0.04 l-0.04 0 z M99.99400000000001 7.119999999999999 c0 -0.02 -0.02 -0.02 -0.02 -0.02 c-0.02 0 -0.02 0 -0.02 0.02 s0 0.02 0.02 0.02 c0 0 0.02 0 0.02 -0.02 z M98.59400000000001 5.4 l0 0.04 l0.08 0 c-0.06 -0.04 -0.08 -0.02 -0.08 -0.04 z M98.07400000000001 5.16 c-0.02 0 -0.02 0.16 -0.02 0.2 l0.02 -0.08 l0.14 0 c0 -0.08 -0.08 -0.12 -0.14 -0.12 z M98.474 5.18 c0.04 0.08 0.04 0.1 0.1 0.1 c0 -0.1 -0.06 -0.1 -0.1 -0.1 z M101.49400000000001 5.18 l0 0.04 l0.14 0 l0 -0.04 l-0.14 0 z M103.49400000000001 5.18 c0.02 0.04 0.06 0.06 0.08 0.06 s0.04 -0.02 0.06 -0.02 z M104.43400000000001 5.119999999999999 c0 0.08 0.4 0.1 0.42 0.1 c-0.06 -0.14 -0.16 -0.08 -0.26 -0.14 c-0.04 0 -0.12 0.04 -0.16 0.04 z M99.31400000000001 5.16 c0 0.04 0.02 0.02 0.12 0.02 l0 -0.06 s-0.08 0.02 -0.12 0.04 z M101.01400000000001 5.16 c-0.02 0 -0.04 0 -0.04 0.02 s0.02 0.04 0.04 0.04 s0.02 -0.02 0.02 -0.04 s0 -0.02 -0.02 -0.02 z M102.01400000000001 5.16 c0 0 -0.02 0 -0.02 0.02 s0.02 0.04 0.02 0.04 s0.02 -0.02 0.02 -0.04 s-0.02 -0.02 -0.02 -0.02 z M103.79400000000001 5.18 c0 -0.02 -0.02 -0.02 -0.04 -0.02 s-0.04 0 -0.04 0.02 s0.02 0.04 0.04 0.04 s0.04 -0.02 0.04 -0.04 z M113.653 19.72 l0 -0.1 l0.24 -0.24 l0.98 0 l0.08 0.04 l0.46 0.04 c0.08 0.04 0.18 -0.26 0.24 -0.26 l0 -2.42 c0 -0.02 -0.04 -0.26 -0.04 -0.28 c0 0 0.04 -0.48 0.04 -0.58 c0.04 -0.06 -0.06 0.08 -0.06 -0.32 c0 -0.04 0.06 -0.08 0.06 -0.16 c0 -0.14 -0.04 -0.22 -0.04 -0.32 c0 -0.04 0.04 -0.18 0.04 -0.26 l0 -1.26 c0 -0.18 -0.06 -0.5 -0.06 -0.74 l0.02 -1.72 c-0.02 -0.08 -0.02 -0.6 -0.02 -0.7 c0 -0.06 0.02 -0.52 0.02 -0.58 c0 -0.02 -0.02 -1.04 -0.02 -1.16 c0 -1.24 0.02 -1.46 0.02 -2 c0 -0.24 0 -0.76 -0.02 -0.92 l-0.12 -0.14 s-0.4 -0.02 -0.56 -0.02 c-0.26 0 -0.46 0.06 -0.7 0.06 c-0.22 -0.04 -0.44 0.12 -0.64 -0.34 c0 -0.18 0.04 -0.4 0.22 -0.44 c4.08 0 4.5 0.04 6.12 0.04 c3.88 0 3.66 -0.04 5.28 -0.04 c0.2 0 0.42 3.66 0.42 3.84 c0 0.02 0.02 0.02 0.02 0.04 c0 0.24 -0.36 0.42 -0.48 0.42 c-0.26 0 -0.4 -0.28 -0.48 -0.6 c0.08 0 -0.86 -1.54 -0.82 -1.46 c-0.26 -0.26 -0.28 -0.3 -0.44 -0.5 c0 -0.18 -0.86 -0.58 -0.96 -0.72 c0 0.02 -0.02 0.02 -0.02 0.02 c-0.06 0 -0.12 -0.24 -0.54 -0.24 c-0.56 0 -0.52 -0.08 -1.38 -0.08 l0 -0.04 l-0.62 0 l-0.04 0.04 l-0.26 0 l0.14 -0.04 c-0.46 0 -0.66 -0.06 -0.78 -0.06 c-0.18 0 -0.4 0.1 -0.4 0.68 c0 1.12 0.04 1.72 0.04 2 c0 0.3 -0.04 1.18 -0.04 1.3 c0 0.34 0.08 0.62 0.08 0.86 c-0.04 0 -0.08 0.14 -0.08 0.2 s0.08 0.44 0.08 0.62 c0 0.04 -0.04 0.1 -0.04 0.12 c0 0.06 -0.06 0.82 0.14 0.82 c0.46 0 0.8 -0.12 1.16 -0.12 l0 0.02 c0.06 0 0.24 -0.3 0.38 -0.3 c0.24 0 0.28 -0.08 0.54 -0.34 l0 0.02 c-0.02 0 0.34 -0.72 0.54 -0.96 c0.34 -0.16 -0.12 -1 0.88 -1 l0.06 0.04 c0 0.18 0.1 0.24 0.1 0.8 c-0.02 0.16 -0.04 0.68 -0.04 0.64 c0 0.22 0.04 0.56 0.04 0.84 c0 0.24 0 0.24 -0.04 0.36 c0 0.2 0.04 0.46 0.04 0.52 c0 0.26 -0.04 0.26 -0.04 0.46 c0 0.16 0.04 1.24 0.04 1.38 c0 0.08 -0.04 0.16 -0.04 0.28 l0 0.74 c0.02 0.02 -0.16 0.16 -0.26 0.16 c-0.64 0 -0.1 -0.12 -0.82 -1.42 c-0.56 -0.98 -0.74 -0.94 -1.06 -1.22 c0.02 0 -0.58 -0.2 -0.72 -0.2 l-0.06 -0.1 l-0.64 -0.02 c-0.3 0.16 -0.26 1 -0.26 0.68 c0 0.08 0.06 0.28 0.06 0.58 c0 0.14 -0.02 0.38 -0.06 0.6 c0 0.02 0.06 0.2 0.06 0.32 c0 0.2 -0.04 0.18 -0.04 0.26 c0 0.14 0.04 0.22 0.04 0.28 c-0.06 0.78 -0.08 2.18 -0.08 2.42 c0 1.26 -0.02 1.36 0.28 1.66 l0.86 0 c0.08 -0.02 0.18 -0.08 0.26 -0.08 c0.02 0 1.2 0.04 1.36 0.04 s0.02 -0.1 0.44 -0.1 c0.76 -0.3 0.72 -0.04 1.36 -0.54 c-0.02 0 -0.02 -0.02 -0.02 -0.02 c0 -0.06 0.5 -0.28 0.76 -0.6 c-0.02 0 -0.02 -0.02 -0.02 -0.02 c0 -0.3 0.88 -0.52 0.88 -1.24 c0 -0.08 0.36 -0.54 0.36 -0.66 c0.5 -1.26 0.18 -1.2 0.82 -1.2 c0.02 0 0.24 0 0.24 0.26 c0 1.3 -0.2 2.9 -0.2 3.8 c0 0.14 0.02 0.28 0.02 0.42 c0 0.24 -0.08 0.44 -0.56 0.44 l-7.7 0 c-1.16 0 -1.58 0.04 -3.72 0.04 c-0.38 -0.12 -0.28 -0.28 -0.28 -0.32 z M113.85300000000001 19.8 l0 -0.02 l0 0.06 c0 0.06 0.02 0.14 0.2 0.14 c0.04 0 0.1 0 0.16 -0.02 l0 -0.04 l-0.16 -0.18 c-0.02 0.04 -0.04 0.08 -0.08 0.1 c-0.02 0 -0.08 -0.02 -0.12 -0.06 l0 0.02 z M120.95300000000002 19.88 l0.02 0.04 c0.02 -0.02 0.02 -0.02 0.02 -0.08 z M120.17300000000002 19.84 c-0.06 0 -0.08 0 -0.1 0.04 l0.1 0 l0 -0.04 z M114.55300000000001 19.62 c0.04 0 0.12 0.04 0.14 0.04 c0.18 0 0.12 0 0.18 -0.04 c-0.04 0 -0.18 -0.04 -0.2 -0.04 c-0.08 0 -0.08 0 -0.12 0.04 z M125.53300000000002 19.62 c0.02 0.06 0.08 0.04 0.12 0.04 c-0.02 -0.04 -0.06 -0.04 -0.12 -0.04 z M116.09300000000002 19.62 c0 -0.02 -0.02 -0.02 -0.04 -0.02 s-0.04 0 -0.04 0.02 s0.02 0.04 0.04 0.04 s0.04 -0.02 0.04 -0.04 z M113.97300000000001 19.56 l0 0.02 l0.2 0 c-0.04 -0.02 -0.16 -0.02 -0.2 -0.02 z M115.81300000000002 16.9 l-0.02 -0.02 c-0.02 0 -0.02 0.02 -0.02 0.02 c0 0.02 0 0.04 0.02 0.04 c0 0 0.02 -0.02 0.02 -0.04 z M115.77300000000001 16.04 l0 0.08 c0.02 0 0.02 -0.02 0.02 -0.04 s0 -0.04 -0.02 -0.04 z M115.81300000000002 15.92 c0.02 0.04 0.06 0.04 0.12 0.04 c0 -0.04 0.02 -0.16 -0.04 -0.2 c0 0.04 -0.08 0.1 -0.08 0.16 z M115.933 15.54 c0 0.02 0 0.04 0.02 0.06 l0.02 -0.06 l-0.04 0 z M125.933 15.54 c-0.02 0 -0.04 0.02 -0.04 0.04 c0 0 0.02 0.02 0.04 0.02 s0.02 -0.02 0.02 -0.02 c0 -0.02 0 -0.04 -0.02 -0.04 z M126.03300000000002 15.5 c-0.02 0 -0.02 0.02 -0.02 0.04 c0 0 0 0.02 0.02 0.02 l0 -0.06 z M115.81300000000002 12.48 c-0.02 0 -0.04 0.02 -0.04 0.04 c0 0 0.02 0.02 0.04 0.02 s0.02 -0.02 0.02 -0.02 c0 -0.02 0 -0.04 -0.02 -0.04 z M115.95300000000002 12.48 c0 -0.02 0 -0.02 -0.02 -0.02 l0 0.04 c0.02 0 0.02 0 0.02 -0.02 z M115.81300000000002 11.6 l-0.02 -0.02 c-0.02 0 -0.02 0.02 -0.02 0.02 c0 0.02 0 0.04 0.02 0.04 c0 0 0.02 -0.02 0.02 -0.04 z M122.19300000000001 9.92 c0 -0.02 -0.02 -0.02 -0.04 -0.02 c0 0 -0.02 0 -0.02 0.02 s0.02 0.04 0.02 0.04 c0.02 0 0.04 -0.02 0.04 -0.04 z M125.03300000000002 8.96 c-0.02 0 -0.04 0.02 -0.04 0.04 c0 0 0.02 0.02 0.04 0.02 s0.02 -0.02 0.02 -0.02 c0 -0.02 0 -0.04 -0.02 -0.04 z M118.07300000000001 7.960000000000001 c-0.02 0.02 -0.02 0.06 -0.02 0.08 l0.22 0 c-0.02 -0.04 -0.1 -0.08 -0.2 -0.08 z M115.77300000000001 7.18 l0 0.08 c0.02 0 0.02 -0.02 0.02 -0.04 s0 -0.04 -0.02 -0.04 z M115.77300000000001 6.16 l0 0.08 c0.02 0 0.02 -0.02 0.02 -0.04 s0 -0.04 -0.02 -0.04 z M125.23300000000002 5.42 l0 0.2 l0.02 -0.1 c0 -0.04 0 -0.06 -0.02 -0.1 z M115.07300000000001 5.539999999999999 c-0.02 0 -0.02 0.02 -0.02 0.04 s0 0.04 0.02 0.04 s0.02 -0.02 0.02 -0.04 s0 -0.04 -0.02 -0.04 z M116.75300000000001 5.58 c0 -0.02 -0.02 -0.02 -0.02 -0.02 c-0.02 0 -0.02 0 -0.02 0.02 s0 0.04 0.02 0.04 c0 0 0.02 -0.02 0.02 -0.04 z M114.51300000000002 5.380000000000001 c-0.18 0 -0.08 0.14 -0.14 0.16 c0.12 0 0.14 -0.02 0.14 -0.06 c0 -0.02 -0.02 -0.04 -0.02 -0.06 s0.02 -0.02 0.02 -0.04 z M114.99300000000001 5.48 l0.06 0.04 l0.02 -0.04 l-0.04 -0.02 z M114.11300000000001 5.42 c-0.02 0 -0.02 0.02 -0.02 0.04 c0 0 0 0.02 0.02 0.02 s0.02 -0.02 0.02 -0.02 c0 -0.02 0 -0.04 -0.02 -0.04 z M114.31300000000002 5.34 l-0.14 0.04 l0.14 0 l0 -0.04 z M116.09300000000002 5.34 c-0.02 0 -0.04 0.02 -0.04 0.02 c0 0.02 0.02 0.02 0.04 0.02 c0 0 0.02 0 0.02 -0.02 z M118.11300000000001 5.34 l0 0.04 l0.02 0 z M114.41300000000001 5.34 l-0.04 0 c0 0.02 0 0.04 0.02 0.04 c0 0 0.02 -0.02 0.02 -0.04 z M114.87300000000002 5.32 c-0.04 0 -0.04 0.04 -0.04 0.04 c0.02 0 0.02 -0.02 0.04 -0.04 z M115.73300000000002 5.34 l-0.04 0 c0 0.02 0 0.04 0.02 0.04 c0 0 0.02 -0.02 0.02 -0.04 z M118.99300000000001 5.32 c-0.04 0 -0.08 0.02 -0.12 0.02 l0.14 0 z M113.81300000000002 5.32 c0 0 0 -0.02 -0.02 -0.02 l0 0.04 c0.02 0 0.02 0 0.02 -0.02 z M119.85300000000001 5.26 c0 0.08 0.02 0.04 0.04 0.06 c0 0 0.02 0 0.04 -0.02 l-0.04 -0.08 z M125.15300000000002 5.0600000000000005 l0 0.24 l0.04 0 c0 -0.06 0.02 -0.24 -0.04 -0.24 z M114.63300000000001 5.1 c-0.02 0 -0.04 0.02 -0.04 0.02 c0 0.02 0.02 0.02 0.04 0.02 s0.02 0 0.02 -0.02 c0 0 0 -0.02 -0.02 -0.02 z M113.97300000000001 5.1 l-0.02 -0.04 z M114.21300000000001 5.02 c-0.04 0.02 -0.06 0.04 -0.06 0.06 l0.02 0.02 l0.04 0 l0 -0.08 z"/></g>
			</g>
		</svg>
	